<?xml version="1.0" standalone="no"?>
<!DOCTYPE svg PUBLIC "-//W3C//DTD SVG 20010904//EN"
 "http://www.w3.org/TR/2001/REC-SVG-20010904/DTD/svg10.dtd">
<svg version="1.0" xmlns="http://www.w3.org/2000/svg"
 width="1100.000000pt" height="1100.000000pt" viewBox="0 0 1100.000000 1100.000000"
 preserveAspectRatio="xMidYMid meet">
<metadata>
Created by potrace 1.11, written by Peter Selinger 2001-2013
</metadata>
<g transform="translate(0.000000,1100.000000) scale(0.100000,-0.100000)"
fill="#000000" stroke="none">
<path d="M0 5500 l0 -5500 5500 0 5500 0 0 5500 0 5500 -5500 0 -5500 0 0
-5500z m6020 4756 c364 -44 646 -105 975 -213 1266 -414 2323 -1368 2864
-2586 225 -506 352 -1002 401 -1572 14 -155 14 -594 0 -755 -76 -911 -389
-1742 -931 -2477 -269 -363 -670 -757 -1052 -1031 -594 -427 -1300 -717 -2022
-831 -281 -44 -427 -55 -755 -55 -346 0 -499 13 -809 65 -1157 193 -2203 818
-2955 1764 -117 148 -315 446 -417 630 -646 1165 -773 2554 -349 3825 84 253
162 439 283 674 542 1056 1466 1875 2582 2291 373 139 808 239 1195 274 63 6
131 13 150 15 92 10 713 -3 840 -18z"/>
<path d="M5210 9884 c-19 -2 -87 -9 -150 -14 -878 -80 -1763 -464 -2443 -1060
-731 -641 -1228 -1494 -1416 -2435 -63 -312 -98 -714 -85 -980 l7 -140 406 0
c469 -1 694 -17 1111 -81 899 -137 1776 -434 2522 -852 71 -40 130 -72 133
-72 3 0 4 181 3 402 l-3 401 -100 17 c-577 98 -1003 516 -1158 1135 -52 205
-62 301 -62 580 0 265 7 344 46 540 127 632 575 1353 1246 2006 89 86 177 169
197 184 l36 27 58 -48 c31 -26 143 -133 247 -238 283 -285 469 -510 680 -826
369 -554 524 -1002 542 -1565 20 -627 -172 -1149 -544 -1477 -189 -167 -473
-295 -715 -324 -31 -4 -61 -10 -67 -13 -8 -5 -11 -110 -9 -367 l3 -360 155 83
c282 150 668 317 990 428 691 237 1358 369 2100 416 192 12 874 7 919 -7 l23
-7 -5 324 c-5 363 -22 527 -82 824 -356 1754 -1765 3128 -3527 3439 -258 46
-395 58 -718 61 -168 2 -321 1 -340 -1z"/>
<path d="M5354 8863 c-201 -218 -411 -483 -530 -669 l-36 -57 256 -256 256
-256 0 240 0 240 260 273 c143 150 260 277 260 280 0 16 -307 352 -321 352 -4
0 -70 -66 -145 -147z"/>
<path d="M5877 8143 l-187 -198 0 -624 0 -623 311 303 c171 167 359 349 417
405 l107 101 -39 99 c-43 108 -125 279 -189 389 -52 92 -220 345 -228 345 -3
0 -90 -89 -192 -197z"/>
<path d="M4542 7678 c-81 -187 -128 -349 -156 -533 l-15 -100 465 -465 464
-465 0 475 0 475 -353 353 c-193 193 -355 352 -358 352 -4 0 -25 -42 -47 -92z"/>
<path d="M6153 6603 l-462 -448 0 -353 -1 -354 43 7 c390 61 685 332 822 756
63 194 79 310 79 581 1 154 -3 241 -10 248 -7 7 -148 -124 -471 -437z"/>
<path d="M4385 6445 c12 -74 54 -231 78 -296 62 -165 144 -296 256 -412 126
-130 277 -217 459 -263 52 -13 101 -24 108 -24 10 0 14 15 14 58 l0 57 -461
460 c-440 439 -460 458 -454 420z"/>
<path d="M1173 4862 c-22 -14 48 -351 127 -617 44 -146 107 -325 115 -325 29
0 333 -37 464 -56 1326 -194 2550 -720 3546 -1524 365 -295 746 -671 1034
-1022 l62 -76 112 30 c236 63 507 162 725 264 l104 49 -114 171 c-417 624
-915 1171 -1473 1617 -1097 877 -2467 1390 -3970 1487 -184 12 -714 13 -732 2z"/>
<path d="M8920 4859 c-1100 -79 -2105 -368 -3013 -866 l-117 -65 97 -70 c193
-140 460 -360 628 -519 46 -43 88 -79 93 -79 5 0 65 22 133 49 864 342 1844
540 2681 541 l136 0 40 103 c87 222 169 518 213 759 18 100 20 131 11 140 -15
15 -715 21 -902 7z"/>
<path d="M1600 3503 c0 -11 110 -204 191 -335 90 -144 278 -399 394 -533 112
-130 362 -375 495 -486 637 -531 1389 -867 2200 -983 354 -51 836 -55 1158
-10 l42 6 -72 82 c-128 143 -419 435 -563 564 -731 654 -1571 1126 -2526 1422
-331 102 -749 196 -1085 245 -99 14 -191 27 -206 30 -16 2 -28 2 -28 -2z"/>
<path d="M9117 3449 c-675 -37 -1442 -204 -2132 -466 -38 -15 -72 -28 -74 -29
-1 -2 46 -58 106 -126 236 -266 459 -557 660 -860 69 -104 127 -188 130 -188
7 0 210 137 293 198 409 301 763 673 1044 1097 103 154 226 361 226 378 0 8
-46 7 -253 -4z"/>
</g>
</svg>
