<svg id="Capa_1" enable-background="new 0 0 512 512" height="512" viewBox="0 0 512 512" width="512" xmlns="http://www.w3.org/2000/svg" xmlns:xlink="http://www.w3.org/1999/xlink"><linearGradient id="SVGID_1_" gradientUnits="userSpaceOnUse" x1="256" x2="256" y1="512" y2="0"><stop offset="0" stop-color="#fd5900"/><stop offset="1" stop-color="#ffde00"/></linearGradient><g><g><g><path d="m211.173 89.565-5.238 31.518c-.932 5.604 1.384 11.254 5.98 14.594 4.595 3.338 10.685 3.796 15.728 1.178l28.357-14.722 28.356 14.721c5.083 2.638 11.167 2.135 15.728-1.178 4.597-3.34 6.912-8.99 5.98-14.594l-5.238-31.518 22.763-22.419c4.048-3.987 5.496-9.918 3.74-15.322-1.756-5.403-6.413-9.351-12.031-10.197l-31.594-4.758-14.288-28.576c-2.541-5.082-7.735-8.292-13.416-8.292s-10.876 3.21-13.416 8.292l-14.288 28.576-31.593 4.758c-5.618.846-10.275 4.794-12.031 10.197s-.308 11.335 3.74 15.322zm29.29-24.191c4.827-.727 8.999-3.758 11.182-8.125l4.355-8.708 4.354 8.708c2.183 4.367 6.354 7.397 11.182 8.125l9.628 1.45-6.937 6.832c-3.479 3.426-5.072 8.33-4.271 13.146l1.596 9.604-8.641-4.486c-4.333-2.25-9.49-2.249-13.822 0l-8.641 4.486 1.596-9.604c.801-4.816-.793-9.72-4.271-13.146l-6.936-6.832zm158.943 234.626h-68.406v-75c0-24.813-20.187-45-45-45h-30c-8.284 0-15 6.716-15 15v47.574c0 26.927-14.689 48.53-21.817 57.426-17.255 0-131.407 0-143.183 0-8.284 0-15 6.716-15 15v182c0 8.284 6.716 15 15 15h90c8.284 0 15-6.716 15-15v-15h39.026c21.573 19.394 49.172 30 78.4 30h82.979c21.376 0 39.934-15.214 44.126-36.175.05-.25.093-.5.13-.752l17.95-121.66c5.278-27.71-15.966-53.413-44.205-53.413zm-248.406 182h-60v-152h60zm263.114-134.059c-.119.594-4.446 30.032-18.065 122.31-1.516 6.827-7.623 11.749-14.643 11.749h-82.979c-23.353 0-45.307-9.094-61.82-25.607-2.815-2.813-6.629-4.393-10.607-4.393h-45v-122h45c3.979 0 7.794-1.581 10.606-4.394 1.404-1.404 34.394-34.946 34.394-83.032v-32.574h15c8.271 0 15 6.729 15 15v90c0 8.284 6.716 15 15 15h83.406c9.474 0 16.562 8.669 14.708 17.941zm-309.758-151.087c5.083 2.638 11.167 2.135 15.728-1.178 4.597-3.34 6.912-8.99 5.98-14.594l-5.238-31.518 22.763-22.419c4.048-3.987 5.496-9.918 3.74-15.322-1.756-5.403-6.413-9.351-12.031-10.197l-31.594-4.758-14.288-28.576c-2.541-5.082-7.735-8.292-13.416-8.292s-10.876 3.21-13.416 8.292l-14.289 28.576-31.593 4.758c-5.618.846-10.275 4.794-12.031 10.197s-.308 11.335 3.74 15.322l22.762 22.419-5.238 31.518c-.932 5.604 1.384 11.254 5.98 14.594 4.595 3.338 10.685 3.796 15.728 1.178l28.357-14.721zm-35.268-44.935-8.641 4.486 1.596-9.604c.801-4.816-.793-9.72-4.271-13.146l-6.936-6.832 9.627-1.45c4.827-.727 8.999-3.758 11.182-8.125l4.355-8.707 4.354 8.708c2.183 4.367 6.354 7.397 11.182 8.125l9.628 1.45-6.937 6.832c-3.479 3.426-5.072 8.33-4.271 13.146l1.596 9.604-8.641-4.486c-4.333-2.25-9.49-2.25-13.823-.001zm438.241-40.095c-1.756-5.403-6.413-9.351-12.031-10.197l-31.594-4.758-14.288-28.576c-2.541-5.083-7.735-8.293-13.416-8.293s-10.876 3.21-13.416 8.292l-14.288 28.576-31.593 4.758c-5.618.846-10.275 4.794-12.031 10.197s-.308 11.335 3.74 15.322l22.762 22.419-5.238 31.518c-.932 5.604 1.384 11.254 5.98 14.594 4.595 3.338 10.684 3.796 15.728 1.178l28.356-14.721 28.356 14.721c5.083 2.638 11.167 2.135 15.728-1.178 4.597-3.34 6.912-8.99 5.98-14.594l-5.238-31.518 22.763-22.419c4.047-3.986 5.495-9.917 3.74-15.321zm-53.102 21.831c-3.479 3.426-5.072 8.33-4.271 13.146l1.596 9.604-8.641-4.486c-4.333-2.25-9.49-2.249-13.822 0l-8.641 4.486 1.596-9.604c.801-4.816-.793-9.72-4.271-13.146l-6.936-6.832 9.627-1.45c4.827-.727 8.999-3.758 11.182-8.125l4.354-8.708 4.354 8.708c2.183 4.367 6.354 7.397 11.182 8.125l9.628 1.45z" fill="url(#SVGID_1_)"/></g></g></g></svg>