<?xml version="1.0"?>
<svg xmlns="http://www.w3.org/2000/svg" xmlns:xlink="http://www.w3.org/1999/xlink" xmlns:svgjs="http://svgjs.com/svgjs" version="1.1" width="512" height="512" x="0" y="0" viewBox="0 0 512 512" style="enable-background:new 0 0 512 512" xml:space="preserve" class=""><g>
<g xmlns="http://www.w3.org/2000/svg">
	<g>
		<path d="M504.5,199.37c4.142,0,7.5-3.358,7.5-7.5c0-4.142-3.358-7.5-7.5-7.5h-24.564v-17.064H504.5c4.142,0,7.5-3.358,7.5-7.5    c0-4.142-3.358-7.5-7.5-7.5h-24.564v-30.943c4.909-4.316,8.016-10.635,8.016-17.67c0-12.976-10.557-23.532-23.532-23.532h-16.032    c-12.976,0-23.532,10.557-23.532,23.532c0,7.035,3.107,13.354,8.016,17.67v30.943h-153.34v-30.943    c4.909-4.316,8.016-10.635,8.016-17.67c0-12.976-10.557-23.532-23.532-23.532h-16.032c-12.976,0-23.532,10.557-23.532,23.532    c0,7.035,3.107,13.354,8.016,17.67v30.943H79.129v-30.943c4.909-4.316,8.016-10.635,8.016-17.67    c0-12.976-10.557-23.532-23.532-23.532H47.581c-12.976,0-23.532,10.557-23.532,23.532c0,7.035,3.107,13.354,8.016,17.67v30.943    H7.5c-4.142,0-7.5,3.358-7.5,7.5c0,4.142,3.358,7.5,7.5,7.5h24.564v17.064H7.5c-4.142,0-7.5,3.358-7.5,7.5    c0,4.142,3.358,7.5,7.5,7.5h24.564v217.468H7.5c-4.142,0-7.5,3.358-7.5,7.5c0,4.142,3.358,7.5,7.5,7.5h497    c4.142,0,7.5-3.358,7.5-7.5c0-4.142-3.358-7.5-7.5-7.5h-24.564V199.37H504.5z M64.129,416.838H47.064V127.213    c0.172,0.004,0.343,0.013,0.516,0.013h16.032c0.173,0,0.344-0.009,0.517-0.013V416.838z M63.613,112.224H47.581    c-4.705,0-8.532-3.828-8.532-8.532s3.827-8.532,8.532-8.532h16.032c4.705,0,8.532,3.828,8.532,8.532    S68.317,112.224,63.613,112.224z M176.355,416.838h-41.113v-24.564c0-4.142-3.358-7.5-7.5-7.5s-7.5,3.358-7.5,7.5v24.564H79.129    V199.37h41.113v160.837c0,4.142,3.358,7.5,7.5,7.5s7.5-3.358,7.5-7.5V199.37h41.113V416.838z M232.468,416.838h-41.113V199.37    h41.113V416.838z M232.468,184.369H79.129v-17.064h153.339V184.369z M239.452,103.692c0-4.704,3.827-8.532,8.532-8.532h16.032    c4.705,0,8.532,3.828,8.532,8.532s-3.828,8.532-8.532,8.532h-16.032C243.279,112.224,239.452,108.396,239.452,103.692z     M320.645,416.838h-41.113V239.969c0-4.142-3.358-7.5-7.5-7.5c-4.142,0-7.5,3.358-7.5,7.5v176.869h-17.064V127.213    c0.172,0.004,0.343,0.013,0.516,0.013h16.032c0.173,0,0.344-0.009,0.516-0.013v80.69c0,4.142,3.358,7.5,7.5,7.5    c4.142,0,7.5-3.358,7.5-7.5v-8.532h41.113V416.838z M432.871,416.838h-41.113v-88.695c0-4.142-3.358-7.5-7.5-7.5    c-4.142,0-7.5,3.358-7.5,7.5v88.695h-41.113V199.37h41.113v96.707c0,4.142,3.358,7.5,7.5,7.5c4.142,0,7.5-3.358,7.5-7.5V199.37    h41.113V416.838z M432.871,184.369H279.532v-17.064h153.339V184.369z M464.935,416.838h-17.064V127.213    c0.172,0.004,0.343,0.013,0.516,0.013h16.032c0.173,0,0.344-0.009,0.516-0.013V416.838z M464.419,112.224h-16.032    c-4.705,0-8.532-3.828-8.532-8.532s3.828-8.532,8.532-8.532h16.032c4.705,0,8.532,3.828,8.532,8.532    S469.123,112.224,464.419,112.224z" fill="#008435" data-original="#000000" style=""/>
	</g>
</g>
<g xmlns="http://www.w3.org/2000/svg">
</g>
<g xmlns="http://www.w3.org/2000/svg">
</g>
<g xmlns="http://www.w3.org/2000/svg">
</g>
<g xmlns="http://www.w3.org/2000/svg">
</g>
<g xmlns="http://www.w3.org/2000/svg">
</g>
<g xmlns="http://www.w3.org/2000/svg">
</g>
<g xmlns="http://www.w3.org/2000/svg">
</g>
<g xmlns="http://www.w3.org/2000/svg">
</g>
<g xmlns="http://www.w3.org/2000/svg">
</g>
<g xmlns="http://www.w3.org/2000/svg">
</g>
<g xmlns="http://www.w3.org/2000/svg">
</g>
<g xmlns="http://www.w3.org/2000/svg">
</g>
<g xmlns="http://www.w3.org/2000/svg">
</g>
<g xmlns="http://www.w3.org/2000/svg">
</g>
<g xmlns="http://www.w3.org/2000/svg">
</g>
</g></svg>
