<svg height="512" viewBox="0 0 128 128" width="512" xmlns="http://www.w3.org/2000/svg"><g><g fill="#d38854"><path d="m11 24.192-4.5 5.683v73.933h4.5 4.5v-73.933z"/><path d="m64 24.192-4.5 5.683v73.933h4.5 4.5v-73.933z"/><path d="m117 24.192-4.5 5.683v73.933h4.5 4.5v-73.933z"/><g><path d="m22.833 105.558a1.75 1.75 0 0 1 -1.75-1.75v-71.2a1.75 1.75 0 0 1 3.5 0v71.2a1.75 1.75 0 0 1 -1.75 1.75z"/><path d="m30.167 105.558a1.75 1.75 0 0 1 -1.75-1.75v-71.2a1.75 1.75 0 0 1 3.5 0v71.2a1.75 1.75 0 0 1 -1.75 1.75z"/><path d="m37.5 105.558a1.75 1.75 0 0 1 -1.75-1.75v-71.2a1.75 1.75 0 0 1 3.5 0v71.2a1.75 1.75 0 0 1 -1.75 1.75z"/><path d="m44.833 105.558a1.75 1.75 0 0 1 -1.75-1.75v-71.2a1.75 1.75 0 0 1 3.5 0v71.2a1.75 1.75 0 0 1 -1.75 1.75z"/><path d="m52.167 105.558a1.75 1.75 0 0 1 -1.75-1.75v-71.2a1.75 1.75 0 0 1 3.5 0v71.2a1.75 1.75 0 0 1 -1.75 1.75z"/></g><g><path d="m105.167 105.558a1.75 1.75 0 0 1 -1.75-1.75v-71.2a1.75 1.75 0 0 1 3.5 0v71.2a1.75 1.75 0 0 1 -1.75 1.75z"/><path d="m97.833 105.558a1.75 1.75 0 0 1 -1.75-1.75v-71.2a1.75 1.75 0 0 1 3.5 0v71.2a1.75 1.75 0 0 1 -1.75 1.75z"/><path d="m90.5 105.558a1.75 1.75 0 0 1 -1.75-1.75v-71.2a1.75 1.75 0 0 1 3.5 0v71.2a1.75 1.75 0 0 1 -1.75 1.75z"/><path d="m83.167 105.558a1.75 1.75 0 0 1 -1.75-1.75v-71.2a1.75 1.75 0 0 1 3.5 0v71.2a1.75 1.75 0 0 1 -1.75 1.75z"/><path d="m75.833 105.558a1.75 1.75 0 0 1 -1.75-1.75v-71.2a1.75 1.75 0 0 1 3.5 0v71.2a1.75 1.75 0 0 1 -1.75 1.75z"/></g></g><path d="m6.5 55.375h115v9h-115z" fill="#f4a86c"/><path d="m6.5 82.875h115v9h-115z" fill="#f4a86c"/></g></svg>