<?xml version="1.0"?>
<svg xmlns="http://www.w3.org/2000/svg" xmlns:xlink="http://www.w3.org/1999/xlink" xmlns:svgjs="http://svgjs.com/svgjs" version="1.1" width="512" height="512" x="0" y="0" viewBox="0 0 512 512" style="enable-background:new 0 0 512 512" xml:space="preserve"><g>
<g xmlns="http://www.w3.org/2000/svg">
	<g>
		<path d="M467.093,277.508c-2.101-2.102-5.025-3.164-7.987-2.887C372.777,282.56,300.157,336.236,266,411.053V267.23    c42.53-6.085,120.106-47.118,120.106-101.685c0-65.152-35.645-114.85-42.791-124.151c-2.73-3.553-7.49-4.854-11.651-3.189    l-10.147,4.067c-6.273-14.882-13.143-27.752-19.654-37.735c-1.646-2.523-4.343-4.171-7.341-4.483    c-2.993-0.311-5.976,0.744-8.107,2.875L256,33.344L225.584,2.928c-2.131-2.13-5.112-3.182-8.107-2.875    c-2.998,0.313-5.695,1.96-7.341,4.484c-3.292,5.048-11.393,18.274-19.66,37.732l-10.141-4.065    c-4.16-1.668-8.921-0.363-11.651,3.189c-7.146,9.302-42.791,58.999-42.791,124.151c0,54.566,77.576,95.6,120.106,101.685v143.822    c-34.157-74.817-106.777-128.493-193.106-136.432c-2.954-0.275-5.886,0.785-7.987,2.887s-3.159,5.028-2.887,7.987    c6.852,74.503,48.502,150.379,103.643,188.807c25.493,17.767,52.678,26.8,80.031,26.8c6.765,0,13.542-0.557,20.306-1.668V502    c0,5.522,4.477,10,10,10s10-4.478,10-10v-2.566c6.763,1.111,13.539,1.667,20.306,1.667c27.351,0,54.541-9.035,80.031-26.8    c55.141-38.428,96.791-114.303,103.643-188.807C470.251,282.536,469.194,279.609,467.093,277.508z M331.877,59.667    c16.674,24.211,34.229,64.092,34.229,105.879c0,22.399-19.802,42.926-43.412,57.899c12.961-20.195,21.513-45.923,21.513-74.364    c0-31.377-6.506-61.915-15.542-88.126L331.877,59.667z M291.521,26.108c5.211,9.329,10.437,20.384,15.136,32.672    c0.024,0.065,0.041,0.131,0.067,0.196c0.012,0.029,0.027,0.055,0.039,0.084c9.911,26,17.445,57.509,17.445,90.022    c0,25.981-8.426,51.24-23.725,71.124c-10.217,13.279-22.74,22.658-34.483,26.22V51.63L291.521,26.108z M145.894,165.546    c0-41.787,17.554-81.668,34.229-105.879l3.159,1.266c-2.874,8.284-5.593,17.308-7.937,26.982    c-1.301,5.368,1.996,10.773,7.364,12.074c5.364,1.296,10.773-1.995,12.074-7.363c3.023-12.475,6.697-23.756,10.49-33.644    c0.001-0.002,0.002-0.004,0.003-0.007c0.002-0.004,0.003-0.008,0.004-0.012c5.334-13.901,10.902-25.041,15.227-32.827L246,51.63    v194.824c-23.439-7-49.87-37.081-56.614-77.991c-0.898-5.449-6.05-9.142-11.493-8.24c-5.45,0.898-9.139,6.045-8.24,11.494    c3.071,18.631,9.955,36.47,19.81,51.829C165.783,208.564,145.894,187.995,145.894,165.546z M157.098,457.893    c-46.772-32.596-84.141-97.801-93.671-161.865c87.79,13.125,158.004,78.228,177.866,162.779l-80.332-78.13    c-3.959-3.85-10.291-3.761-14.141,0.196c-3.851,3.96-3.763,10.291,0.196,14.142l88.046,85.633    C208.661,482.974,182.03,475.268,157.098,457.893z M354.902,457.893c-24.931,17.375-51.561,25.087-77.966,22.756l59.37-57.743    c3.959-3.851,4.047-10.182,0.196-14.142c-3.851-3.959-10.181-4.047-14.141-0.196l-51.655,50.239    c19.862-84.55,90.075-149.653,177.866-162.779C439.042,360.092,401.674,425.298,354.902,457.893z" fill="#008435" data-original="#000000" style=""/>
		<path d="M177.357,139.785c0.421,0.053,0.839,0.078,1.253,0.078c4.97,0,9.278-3.701,9.91-8.761l0.001-0.008    c0.685-5.48-3.203-10.474-8.683-11.159c-5.481-0.689-10.478,3.205-11.164,8.687C167.989,134.102,171.876,139.099,177.357,139.785z    " fill="#008435" data-original="#000000" style=""/>
		<path d="M358.008,397.851c2.4,0,4.808-0.858,6.724-2.601l0.005-0.005c4.087-3.715,4.385-10.037,0.67-14.124    c-3.715-4.086-10.042-4.385-14.129-0.67c-4.087,3.715-4.388,10.04-0.673,14.126C352.579,396.749,355.289,397.851,358.008,397.851z    " fill="#008435" data-original="#000000" style=""/>
	</g>
</g>















</g></svg>
