<svg height="460pt" viewBox="0 -27 460.06445 460" width="460pt" xmlns="http://www.w3.org/2000/svg"><path d="m139.722656 18.765625-73.265625 73.269531v22.144532h-22.144531l-44.3125 44.3125 73.625 73.632812 44.308594-44.324219v-22.140625h22.160156l73.253906-73.269531c13.476563-13.476563 35.324219-13.476563 48.800782 0l9.257812 9.261719 20.824219-20.824219-33.65625-33.65625-28.398438-28.402344c-24.976562-24.980469-65.476562-24.984375-90.453125-.003906zm0 0" fill="#274d59"/><path d="m275.050781 63.65625-20.824219 20.820312-9.257812-9.257812c-13.476562-13.476562-35.324219-13.476562-48.800781 0l-73.277344 73.269531h-22.125v22.140625l-44.3125 44.296875 17.171875 17.199219 44.308594-44.324219v-22.140625h22.160156l73.253906-73.269531c13.476563-13.476563 35.324219-13.476563 48.800782 0l9.257812 9.261719 20.824219-20.824219zm0 0" fill="#1b3c44"/><path d="m66.457031 114.183594h-9.902343l36.089843 36.085937 9.898438-9.898437-36.085938-36.089844zm0 0" fill="#1b3c44"/><path d="m63.96875 52.183594 45.046875-45.046875 21.171875 21.171875-45.046875 45.046875zm0 0" fill="#f9ad6a"/><path d="m74.558594 62.765625 45.042968-45.046875 10.585938 10.585938-45.046875 45.042968zm0 0" fill="#ea8c46"/><path d="m158.765625 146.972656 186.34375 186.355469c8.125 8.125 14.535156 17.796875 18.855469 28.445313l7.964844 19.648437c9.867187 24.339844 40.957031 33.277344 60.96875 16.269531.523437-.445312 13.136718-13 22.714843-22.554687 2.835938-2.832031 4.433594-6.679688 4.433594-10.691407 0-4.011718-1.597656-7.859374-4.433594-10.695312l-53.160156-53.160156-198.644531-198.664063zm0 0" fill="#f9ad6a"/><path d="m158.761719 146.976562 45.042969-45.046874 16.433593 16.429687-45.046875 45.046875zm0 0" fill="#ea8c46"/><path d="m455.625 353.726562-53.160156-53.160156-19.574219-19.542968-45.035156 45.042968 7.253906 7.261719c8.125 8.125 14.535156 17.796875 18.855469 28.445313l7.964844 19.648437c9.867187 24.335937 40.957031 33.277344 60.96875 16.269531.523437-.445312 13.136718-13 22.714843-22.554687 2.847657-2.832031 4.449219-6.683594 4.449219-10.703125.003906-4.015625-1.59375-7.871094-4.4375-10.707032zm0 0" fill="#d36c4f"/><path d="m455.625 353.726562-69.269531-69.269531 53.160156 53.160157c2.839844 2.835937 4.433594 6.683593 4.433594 10.695312s-1.59375 7.859375-4.433594 10.695312c-9.578125 9.546876-22.191406 22.105469-22.710937 22.550782-12.113282 10.109375-29.222657 11.648437-42.945313 3.863281 11.496094 21.242187 40.1875 28.277344 59.050781 12.246094.523438-.445313 13.136719-13 22.714844-22.554688 2.839844-2.832031 4.433594-6.679687 4.433594-10.691406s-1.59375-7.859375-4.433594-10.695313zm0 0" fill="#c1573e"/><path d="m182.054688 123.683594 9.898437-9.902344 40.921875 40.921875-9.898438 9.898437zm0 0" fill="#ea8c46"/><path d="m232.621094 174.253906 9.898437-9.902344 20.464844 20.460938-9.898437 9.898438zm0 0" fill="#ea8c46"/><path d="m208.621094 44.566406c-13.085938-13.050781-34.265625-13.050781-47.347656 0l-9.902344-9.898437c18.558594-18.511719 48.59375-18.511719 67.148437 0zm0 0" fill="#1b3c44"/></svg>