<svg xmlns="http://www.w3.org/2000/svg" height="512" width="512"><path d="M24 496.001h464a8 8 0 008-8V355.09a46.176 46.176 0 00-62.39-43.236l-21.956 8.234a24.146 24.146 0 01-27.65-8.078A40.208 40.208 0 00351.99 296h-14.462l13.685-28.54a8 8 0 00-.058-7.037l-32-64A8 8 0 00312 192h-32v-40a8 8 0 008-8v-96a32 32 0 00-64 0v41.442l-5.252 1.05a111.62 111.62 0 01-52.318-2.117 83.282 83.282 0 00-60.27 5.602 40.8 40.8 0 01-36.32 0 56.9 56.9 0 00-25.315-5.976H24a8 8 0 00-8 8v392a8 8 0 008 8zm248-360h-32v-72h32zm-40 24v32h-32a8 8 0 00-7.156 4.423L163.055 256H160v-96zm-136 208v-96h66.937l45.474 96zm-64 0v-96h48v96zm112-112H32v-96h112zm-112 128h112v96H32zm128 0h55.99l10.095 21.312a32.675 32.675 0 0059.564-1.116l9.684-20.196H352v96H160zm320 96H368v-96h112zm-128.01-168a24.133 24.133 0 0119.215 9.607 40.237 40.237 0 0046.067 13.46l21.956-8.233A30.176 30.176 0 01480 355.089v12.913H303.005l26.851-56zm-44.935-104l28.037 56.074-63.948 133.367q-.084.176-.16.354a16.675 16.675 0 01-30.44.668l-63.648-134.368 28.048-56.095H232v40a24 24 0 0048 0v-40zm-43.055 40a8 8 0 01-16 0v-96h16zm-8-216a16.018 16.018 0 0116 16h-32a16.018 16.018 0 0116-16zm-211.475 72a40.819 40.819 0 0118.16 4.287 56.875 56.875 0 0050.63 0 67.323 67.323 0 0148.72-4.528 127.69 127.69 0 0059.85 2.423l2.115-.423V144H32v-40z" data-original="#000000" class="active-path" data-old_color="#000000" fill="#008435"/></svg>