<svg height="512" viewBox="0 0 64 64" width="512" xmlns="http://www.w3.org/2000/svg"><path d="M51 32l11-11L43 2 13 32" fill="#78b75b"/><path d="M22 32c0-2.559.976-5.118 2.929-7.071 3.905-3.905 10.237-3.905 14.142 0A9.968 9.968 0 0142 32" fill="#669e4f"/><path d="M38.827 33.414a3.975 3.975 0 00-1.172-2.829c-1.51-1.511-4.146-1.511-5.655 0l-2.829-2.829a2.004 2.004 0 012.829.001l1.413-1.415a4.005 4.005 0 00-5.656 0l-.707-.707-1.415 1.415.708.708a3.968 3.968 0 00-1.171 2.828 3.97 3.97 0 001.172 2.829c.755.755 1.76 1.171 2.828 1.171s2.072-.416 2.827-1.171l2.829 2.829a2.004 2.004 0 01-2.829-.001l-1.413 1.415c.779.779 1.804 1.169 2.828 1.169s2.048-.39 2.828-1.169l.707.707 1.415-1.415-.708-.708a3.976 3.976 0 001.171-2.828zM30.584 32c-.754.755-2.073.755-2.827 0a1.982 1.982 0 01-.586-1.414c0-.534.208-1.036.585-1.414zm2.83-.001c.754-.755 2.073-.755 2.827 0 .378.378.586.88.586 1.414s-.208 1.036-.585 1.414z" fill="#78b75b"/><path d="M48.222 29.92l-1.415-1.415 7.778-7.778L43.271 9.414l-7.778 7.778-1.415-1.415 8.485-8.485a1.001 1.001 0 011.415 0L56.707 20.02a.998.998 0 01.292.707c0 .266-.104.52-.292.708z" fill="#669e4f"/><path d="M44.002 25.661l1.414-1.416 1.416 1.414-1.414 1.416zM46.802 22.86l1.414-1.414 1.414 1.415-1.414 1.414zM36.93 18.605l1.417-1.414 1.413 1.415-1.416 1.414zM39.732 15.787l1.414-1.414 1.415 1.415-1.414 1.414zM2 32h60v26H2z" fill="#96cc7f"/><circle cx="32" cy="45" fill="#78b75b" r="10"/><path d="M17 58l4 4 4-4" fill="#78b75b"/><path d="M33 44h-.002v-4H33a2 2 0 011.998 2h2c0-2.206-1.794-4-3.998-4h-.002v-1h-1.999v1c-2.206 0-4 1.794-4 4a4.004 4.004 0 004 3.999v4c-1.104 0-2-.897-2-2l-2 .001a4.004 4.004 0 004 3.999v1h1.999v-1H33c2.204 0 3.998-1.794 3.998-4S35.204 44 33 44zm-4.001-2c0-1.103.896-2 2-2v4c-1.103 0-2-.898-2-2zM33 49.999h-.002v-4H33a2.001 2.001 0 010 4zM57.998 54.999H45.999v-2h10.999V37H45.999v-2h11.999a1 1 0 011 1v18a.999.999 0 01-1 .999zM17.999 55H6a1 1 0 01-1-1V36c0-.553.447-1 .999-1h12L18 37H7v16h10.999z" fill="#669e4f"/><path d="M45.999 49h1.999v2h-1.999zM49.999 49h1.999v2h-1.999zM45.999 39h1.999v2h-1.999zM49.999 39h1.999v2h-1.999zM12 39h1.999v2H12zM16 39h1.999v2H16zM12 49h1.999v2H12zM16 49h1.999v2H16z" fill="#78b75b"/></svg>