<svg xmlns="http://www.w3.org/2000/svg" width="512" height="512"><path d="M416 88V56a8 8 0 00-8-8h-48a8 8 0 00-8 8v32a8 8 0 008 8h48a8 8 0 008-8zm-16-8h-32V64h32z" data-original="#000000" class="active-path" data-old_color="#000000" fill="#FFF"/><path d="M468.7 452.573A64.751 64.751 0 00430.96 440q-.84 0-1.685.027c-.062-.189-.133-.374-.2-.563l31.562-61.015a30.173 30.173 0 00-1-29.375A26.515 26.515 0 00436.983 336H408V128h16a8 8 0 007.428-5.029l16-40A8 8 0 00448 80V40a24.028 24.028 0 00-24-24h-80a24.028 24.028 0 00-24 24v40a8 8 0 00.572 2.971l16 40A8 8 0 00344 128h16v208h-28.983a26.515 26.515 0 00-22.658 13.074 30.17 30.17 0 00-1 29.375l5.591 10.808a51.51 51.51 0 00-19.178 15.768q-.808-.024-1.6-.025a52.876 52.876 0 00-32.03 10.822l13.552-81.322A32 32 0 00264 272h-96v-24h17.91A62.161 62.161 0 00248 185.91V144a8 8 0 00-8-8h-25.91A61.943 61.943 0 00168 156.536V128h17.91A62.161 62.161 0 00248 65.91V24a8 8 0 00-8-8h-25.91A62.12 62.12 0 00160 47.659 62.12 62.12 0 00105.91 16H80a8 8 0 00-8 8v41.91A62.161 62.161 0 00134.09 128H152v28.536A61.943 61.943 0 00105.91 136H80a8 8 0 00-8 8v41.91A62.161 62.161 0 00134.09 248H152v24H56a32 32 0 00-9.694 62.5l23.575 141.446A23.923 23.923 0 0093.554 496H480a8 8 0 008-8c0-13.618-6.854-26.2-19.3-35.427zM168 78.09A46.142 46.142 0 01214.09 32H232v33.91A46.142 46.142 0 01185.91 112h-8.83l29.066-34.879a8 8 0 10-12.29-10.24l-.024.029-.006.006L168 97.9zm0 120A46.142 46.142 0 01214.09 152H232v33.91A46.142 46.142 0 01185.91 232h-8.83l29.066-34.879a8 8 0 10-12.29-10.24l-.024.029-.006.006L168 217.9zM349.417 112L336 78.459V40a8.009 8.009 0 018-8h80a8.009 8.009 0 018 8v38.459L418.583 112H400a8 8 0 00-8 8v72h-16v-72a8 8 0 00-8-8zM376 224v-16h16v16zm16 16v120.452a8 8 0 01-8.4 7.99A8.327 8.327 0 01376 360V240zm-69.973 117.393c.987-1.622 3.838-5.393 8.99-5.393H360v8a24.2 24.2 0 0022.85 24.425q.588.027 1.171.027a23.781 23.781 0 0016.544-6.634A24.11 24.11 0 00408 360.452V352h28.983c5.152 0 8 3.771 8.99 5.393a14.074 14.074 0 01.455 13.705l-26.863 51.932A52.81 52.81 0 00379.83 405q-.795 0-1.6.025A52.549 52.549 0 00336 384a53.232 53.232 0 00-7.471.547l-6.957-13.447a14.074 14.074 0 01.455-13.707zM113.855 77.12L142.92 112h-8.83A46.142 46.142 0 0188 65.91V32h17.91A46.142 46.142 0 01152 78.09V97.9l-25.824-30.99-.006-.006-.024-.029a8 8 0 10-12.29 10.24zm0 120L142.92 232h-8.83A46.142 46.142 0 0188 185.91V152h17.91A46.142 46.142 0 01152 198.09v19.81l-25.824-30.99-.006-.006-.024-.029a8 8 0 10-12.29 10.24zM40 304a16.019 16.019 0 0116-16h208a16 16 0 010 32H56a16.019 16.019 0 01-16-16zm144.819 176H93.554a7.976 7.976 0 01-7.891-6.685L62.777 336h194.446l-17.338 104.025a64.847 64.847 0 00-36.585 12.548c-9.965 7.388-16.333 16.927-18.481 27.427zm16.6 0c5.117-14.159 23.195-24 39.622-24a37.562 37.562 0 016.431.562 8 8 0 009.271-6.634C259.347 433.437 274.578 421 292.17 421a38.6 38.6 0 014.69.3 7.983 7.983 0 007.87-3.875 36.771 36.771 0 0162.54 0 7.986 7.986 0 007.87 3.875 38.6 38.6 0 014.69-.3c17.593 0 32.824 12.437 35.428 28.928a8 8 0 009.271 6.634 37.562 37.562 0 016.431-.562c16.427 0 34.5 9.841 39.622 24z" data-original="#000000" class="active-path" data-old_color="#000000" fill="#FFF"/></svg>