<?xml version="1.0"?>
<svg xmlns="http://www.w3.org/2000/svg" xmlns:xlink="http://www.w3.org/1999/xlink" xmlns:svgjs="http://svgjs.com/svgjs" version="1.1" width="512" height="512" x="0" y="0" viewBox="0 0 512.001 512.001" style="enable-background:new 0 0 512 512" xml:space="preserve" class=""><g>
<g xmlns="http://www.w3.org/2000/svg">
	<g>
		<path d="M210.341,62.125l-46.008-46.008C153.94,5.724,140.122,0,125.424,0c-14.698,0-28.516,5.724-38.909,16.118L40.506,62.125    C30.114,72.519,24.39,86.337,24.39,101.035v119.256c0,8.41,3.804,16.201,10.437,21.373c6.634,5.172,15.117,6.964,23.272,4.914    l33.359-8.382v56.559h-8c-6.752,0-12.228,5.474-12.228,12.228v154.46c0,27.877,22.68,50.558,50.559,50.558h7.271    c27.877,0,50.558-22.679,50.558-50.558V306.982c0-6.754-5.476-12.228-12.228-12.228h-7.998v-56.559l33.359,8.382    c2.213,0.556,4.449,0.829,6.665,0.829c5.956,0,11.773-1.974,16.606-5.742c6.634-5.172,10.437-12.963,10.437-21.373V101.035    C226.458,86.336,220.733,72.518,210.341,62.125z M155.162,461.442c0,14.392-11.708,26.102-26.102,26.102h-7.271    c-14.394,0-26.103-11.71-26.103-26.102V319.21h8h43.478h7.998V461.442z M200.984,222.379c-0.465,0.363-1.237,0.739-2.273,0.479    l-39.318-9.88v-25.18c0-6.753-5.476-12.228-12.228-12.228c-6.752,0-12.228,5.474-12.228,12.228v106.956h-19.023V187.798    c0-6.753-5.476-12.228-12.228-12.228c-6.752,0-12.228,5.474-12.228,12.228v25.18l-39.319,9.88    c-1.038,0.258-1.809-0.117-2.273-0.481c-0.466-0.362-1.02-1.019-1.02-2.087V101.035c0-8.166,3.18-15.843,8.953-21.615    l46.009-46.009c5.774-5.774,13.451-8.953,21.615-8.953c8.167,0,15.843,3.181,21.617,8.955l46.009,46.009    c5.775,5.774,8.955,13.451,8.955,21.617v119.253h0C202.004,221.359,201.45,222.016,200.984,222.379z" fill="#008435" data-original="#000000" style="" class=""/>
	</g>
</g>
<g xmlns="http://www.w3.org/2000/svg">
	<g>
		<path d="M487.611,12.894c0-6.754-5.476-12.228-12.228-12.228c-6.752,0-12.228,5.474-12.228,12.228l0.001,134.231h-34.756V12.894    c0-6.754-5.476-12.228-12.228-12.228c-6.752,0-12.228,5.474-12.228,12.228v134.231h-34.752V12.894    c0-6.754-5.476-12.228-12.228-12.228c-6.752,0-12.228,5.474-12.228,12.228v134.231h-34.753l0.001-134.231    c0-6.754-5.476-12.228-12.228-12.228c-6.752,0-12.228,5.476-12.228,12.228l-0.001,158.455c0,25.265,17.113,47.21,41.617,53.368    l25.457,6.396v63.64h-8c-6.752,0-12.228,5.474-12.228,12.228v154.46c0,27.877,22.68,50.558,50.558,50.558h7.272    c27.877,0,50.558-22.679,50.558-50.558v-154.46c0-6.754-5.476-12.228-12.228-12.228h-7.998v-63.639l25.459-6.396    c24.504-6.157,41.617-28.102,41.617-53.368L487.611,12.894z M390.206,487.544h-7.272c-14.394,0-26.102-11.71-26.102-26.102V319.21    h8h43.478h7.998v142.232h0C416.308,475.835,404.599,487.544,390.206,487.544z M440.037,200.999l-31.36,7.88    c-0.124-0.004-0.245-0.018-0.368-0.018c-6.752,0-12.228,5.474-12.228,12.228v73.667h-19.022v-73.667    c0-6.753-5.476-12.228-12.228-12.228c-0.124,0-0.245,0.015-0.367,0.018l-31.359-7.88c-13.538-3.402-23.006-15.479-23.111-29.417    h153.153C463.042,185.52,453.573,197.598,440.037,200.999z" fill="#008435" data-original="#000000" style="" class=""/>
	</g>
</g>
<g xmlns="http://www.w3.org/2000/svg">
	<g>
		<path d="M301.806,428.298c-6.752,0-12.228,5.474-12.228,12.228v12.429c0,6.753,5.476,12.228,12.228,12.228    c6.752,0,12.228-5.474,12.228-12.228v-12.429C314.034,433.773,308.558,428.298,301.806,428.298z" fill="#008435" data-original="#000000" style="" class=""/>
	</g>
</g>
<g xmlns="http://www.w3.org/2000/svg">
	<g>
		<path d="M301.806,330.528c-6.752,0-12.228,5.474-12.228,12.228v59.626c0,6.754,5.476,12.228,12.228,12.228    c6.752,0,12.228-5.474,12.228-12.228v-59.626C314.034,336.003,308.558,330.528,301.806,330.528z" fill="#008435" data-original="#000000" style="" class=""/>
	</g>
</g>
<g xmlns="http://www.w3.org/2000/svg">
	<g>
		<path d="M104.413,76.036c-4.776-4.775-12.517-4.775-17.293,0.001L70.769,92.388c-2.293,2.293-3.582,5.404-3.582,8.646v34.647    c0,6.753,5.476,12.228,12.228,12.228c6.752,0,12.228-5.474,12.228-12.228V106.1l12.77-12.77    C109.188,88.555,109.188,80.812,104.413,76.036z" fill="#008435" data-original="#000000" style="" class=""/>
	</g>
</g>
<g xmlns="http://www.w3.org/2000/svg">
	<g>
		<path d="M134.069,46.38c-4.774-4.776-12.518-4.775-17.292,0l-5.328,5.329c-4.775,4.776-4.775,12.518,0.001,17.293    c2.387,2.388,5.516,3.582,8.645,3.582s6.26-1.195,8.646-3.582l5.328-5.329C138.845,58.896,138.845,51.155,134.069,46.38z" fill="#008435" data-original="#000000" style="" class=""/>
	</g>
</g>
<g xmlns="http://www.w3.org/2000/svg">
</g>
<g xmlns="http://www.w3.org/2000/svg">
</g>
<g xmlns="http://www.w3.org/2000/svg">
</g>
<g xmlns="http://www.w3.org/2000/svg">
</g>
<g xmlns="http://www.w3.org/2000/svg">
</g>
<g xmlns="http://www.w3.org/2000/svg">
</g>
<g xmlns="http://www.w3.org/2000/svg">
</g>
<g xmlns="http://www.w3.org/2000/svg">
</g>
<g xmlns="http://www.w3.org/2000/svg">
</g>
<g xmlns="http://www.w3.org/2000/svg">
</g>
<g xmlns="http://www.w3.org/2000/svg">
</g>
<g xmlns="http://www.w3.org/2000/svg">
</g>
<g xmlns="http://www.w3.org/2000/svg">
</g>
<g xmlns="http://www.w3.org/2000/svg">
</g>
<g xmlns="http://www.w3.org/2000/svg">
</g>
</g></svg>
