<svg xmlns="http://www.w3.org/2000/svg" width="512" height="512" viewBox="0 0 512.001 512.001"><path d="M210.341 62.125l-46.008-46.008C153.94 5.724 140.122 0 125.424 0S96.908 5.724 86.515 16.118L40.506 62.125C30.114 72.519 24.39 86.337 24.39 101.035v119.256c0 8.41 3.804 16.201 10.437 21.373 6.634 5.172 15.117 6.964 23.272 4.914l33.359-8.382v56.559h-8c-6.752 0-12.228 5.474-12.228 12.228v154.46c0 27.877 22.68 50.558 50.559 50.558h7.271c27.877 0 50.558-22.679 50.558-50.558V306.982c0-6.754-5.476-12.228-12.228-12.228h-7.998v-56.559l33.359 8.382c2.213.556 4.449.829 6.665.829 5.956 0 11.773-1.974 16.606-5.742 6.634-5.172 10.437-12.963 10.437-21.373V101.035c-.001-14.699-5.726-28.517-16.118-38.91zm-55.179 399.317c0 14.392-11.708 26.102-26.102 26.102h-7.271c-14.394 0-26.103-11.71-26.103-26.102V319.21h59.476v142.232zm45.822-239.063a2.567 2.567 0 01-2.273.479l-39.318-9.88v-25.18c0-6.753-5.476-12.228-12.228-12.228s-12.228 5.474-12.228 12.228v106.956h-19.023V187.798c0-6.753-5.476-12.228-12.228-12.228s-12.228 5.474-12.228 12.228v25.18l-39.319 9.88a2.567 2.567 0 01-2.273-.481 2.563 2.563 0 01-1.02-2.087V101.035c0-8.166 3.18-15.843 8.953-21.615l46.009-46.009c5.774-5.774 13.451-8.953 21.615-8.953 8.167 0 15.843 3.181 21.617 8.955l46.009 46.009c5.775 5.774 8.955 13.451 8.955 21.617v119.253c0 1.067-.554 1.724-1.02 2.087zM487.611 12.894c0-6.754-5.476-12.228-12.228-12.228s-12.228 5.474-12.228 12.228l.001 134.231H428.4V12.894c0-6.754-5.476-12.228-12.228-12.228s-12.228 5.474-12.228 12.228v134.231h-34.752V12.894c0-6.754-5.476-12.228-12.228-12.228s-12.228 5.474-12.228 12.228v134.231h-34.753l.001-134.231c0-6.754-5.476-12.228-12.228-12.228s-12.228 5.476-12.228 12.228l-.001 158.455a54.96 54.96 0 0041.617 53.368l25.457 6.396v63.64h-8c-6.752 0-12.228 5.474-12.228 12.228v154.46c0 27.877 22.68 50.558 50.558 50.558h7.272c27.877 0 50.558-22.679 50.558-50.558v-154.46c0-6.754-5.476-12.228-12.228-12.228h-7.998v-63.639l25.459-6.396a54.958 54.958 0 0041.617-53.368V12.894zm-97.405 474.65h-7.272c-14.394 0-26.102-11.71-26.102-26.102V319.21h59.476v142.232c0 14.393-11.709 26.102-26.102 26.102zm49.831-286.545l-31.36 7.88c-.124-.004-.245-.018-.368-.018-6.752 0-12.228 5.474-12.228 12.228v73.667h-19.022v-73.667c0-6.753-5.476-12.228-12.228-12.228-.124 0-.245.015-.367.018l-31.359-7.88a30.526 30.526 0 01-23.111-29.417h153.153a30.526 30.526 0 01-23.11 29.417zM301.806 428.298c-6.752 0-12.228 5.474-12.228 12.228v12.429c0 6.753 5.476 12.228 12.228 12.228s12.228-5.474 12.228-12.228v-12.429c0-6.753-5.476-12.228-12.228-12.228z" fill="#008435" data-original="#000000" xmlns="http://www.w3.org/2000/svg"/><path d="M301.806 330.528c-6.752 0-12.228 5.474-12.228 12.228v59.626c0 6.754 5.476 12.228 12.228 12.228s12.228-5.474 12.228-12.228v-59.626c0-6.753-5.476-12.228-12.228-12.228zM104.413 76.036c-4.776-4.775-12.517-4.775-17.293.001L70.769 92.388a12.23 12.23 0 00-3.582 8.646v34.647c0 6.753 5.476 12.228 12.228 12.228s12.228-5.474 12.228-12.228V106.1l12.77-12.77c4.775-4.775 4.775-12.518 0-17.294zM134.069 46.38c-4.774-4.776-12.518-4.775-17.292 0l-5.328 5.329c-4.775 4.776-4.775 12.518.001 17.293 2.387 2.388 5.516 3.582 8.645 3.582s6.26-1.195 8.646-3.582l5.328-5.329c4.776-4.777 4.776-12.518 0-17.293z" fill="#008435" data-original="#000000" xmlns="http://www.w3.org/2000/svg"/></svg>