<svg xmlns="http://www.w3.org/2000/svg" width="512" height="512" viewBox="0 0 509.095 509.095"><g xmlns="http://www.w3.org/2000/svg" fill="#008435"><path d="M378.646 26.706c0-7.224-5.813-13.1-12.957-13.1h-32.728a7.501 7.501 0 00-6.872 4.495l-3.045 6.963-2.916-6.884a7.502 7.502 0 00-6.906-4.574h-25.49C282.111 5.398 272.673 0 261.994 0H214.16c-4.142 0-7.5 3.357-7.5 7.5s3.358 7.5 7.5 7.5h47.834c8.921 0 16.179 7.258 16.179 16.179v43.782c0 8.981-7.308 16.288-16.289 16.288-19.609 0-35.562 15.953-35.562 35.562v42.377c0 6.788-5.522 12.311-12.311 12.311s-12.311-5.522-12.311-12.311V96.625c0-17.664-14.371-32.035-32.035-32.035h-19.978a4.244 4.244 0 01-4.24-4.239V31.179c0-8.921 7.258-16.179 16.179-16.179h20.57c4.142 0 7.5-3.357 7.5-7.5s-3.358-7.5-7.5-7.5h-20.57c-17.192 0-31.179 13.986-31.179 31.179v29.172c0 7.541 4.372 14.064 10.705 17.217v147.054a73.907 73.907 0 0017.842 48.142 73.904 73.904 0 0044.906 24.887c6.829 1.041 11.785 6.809 11.785 13.716v38.007l-10.637 10.638c-9.668 9.668-14.992 22.521-14.992 36.193v53.745c0 32.613 26.533 59.146 59.146 59.146h21.395c32.613 0 59.146-26.533 59.146-59.146v-10.157c0-4.143-3.357-7.5-7.5-7.5s-7.5 3.357-7.5 7.5v10.157c0 24.343-19.804 44.146-44.146 44.146h-21.395c-24.342 0-44.146-19.804-44.146-44.146v-53.745c0-9.665 3.764-18.752 10.599-25.587l12.834-12.834a7.5 7.5 0 002.197-5.304v-41.113c0-14.374-10.314-26.379-24.526-28.544a58.907 58.907 0 01-35.788-19.834 58.856 58.856 0 01-10.982-19.166h201.02a58.874 58.874 0 01-10.982 19.166 58.907 58.907 0 01-35.789 19.834c-14.211 2.165-24.525 14.169-24.525 28.544v41.113c0 1.989.79 3.896 2.196 5.304l12.834 12.833c6.835 6.836 10.6 15.924 10.6 25.588v11.625c0 4.143 3.357 7.5 7.5 7.5s7.5-3.357 7.5-7.5v-11.625c0-13.671-5.324-26.524-14.992-36.194l-10.638-10.637v-38.007c0-6.907 4.956-12.675 11.784-13.716a73.91 73.91 0 0044.907-24.887 73.905 73.905 0 0017.842-48.142v-25.537c0-4.143-3.357-7.5-7.5-7.5s-7.5 3.357-7.5 7.5v25.537c0 1.406-.064 2.806-.164 4.2H156.317a58.701 58.701 0 01-.164-4.2v-72.68c0-.399.325-.725.724-.725h29.824v17.971c0 15.06 12.251 27.311 27.311 27.311s27.311-12.251 27.311-27.311v-17.971h121.6c.399 0 .725.325.725.725v15.18c0 4.143 3.357 7.5 7.5 7.5s7.5-3.357 7.5-7.5V26.706zM156.877 136.217c-.244 0-.482.026-.724.037V79.59h13.513c9.393 0 17.035 7.642 17.035 17.035v39.592zm206.045 0h-27.013V78.18c0-4.143-3.357-7.5-7.5-7.5s-7.5 3.357-7.5 7.5v58.037h-31.016v-11.553c0-4.143-3.357-7.5-7.5-7.5s-7.5 3.357-7.5 7.5v11.553h-33.571v-9.406c0-11.338 9.224-20.562 20.562-20.562 17.253 0 31.289-14.036 31.289-31.288V31.179c0-.867-.045-1.723-.115-2.572h15.197l7.774 18.352a7.5 7.5 0 006.863 4.574h.043a7.502 7.502 0 006.872-4.495l8.061-18.431h25.778v107.647c-.241-.012-.479-.037-.724-.037z" data-original="#000000"/><path d="M232.306 412.717v22.186c0 15.491 12.603 28.094 28.094 28.094s28.094-12.603 28.094-28.094v-22.186c0-15.491-12.603-28.094-28.094-28.094s-28.094 12.603-28.094 28.094zm41.187 0v22.186c0 7.22-5.874 13.094-13.094 13.094s-13.094-5.874-13.094-13.094v-22.186c0-7.22 5.874-13.094 13.094-13.094s13.094 5.874 13.094 13.094z" data-original="#000000"/></g></svg>