<svg xmlns="http://www.w3.org/2000/svg" viewBox="0 0 496.968 496.968" width="512" height="512"><path d="M248.484 40c-66.168 0-120 53.832-120 120s53.832 120 120 120 120-53.832 120-120-53.832-120-120-120zm0 224c-57.344 0-104-46.656-104-104s46.656-104 104-104 104 46.656 104 104-46.656 104-104 104z" data-original="#000000" class="active-path" data-old_color="#000000" fill="#FFF"/><path d="M248.484 72c-48.52 0-88 39.48-88 88s39.48 88 88 88 88-39.48 88-88-39.48-88-88-88zm0 160c-39.704 0-72-32.304-72-72s32.296-72 72-72 72 32.304 72 72-32.296 72-72 72z" data-original="#000000" class="active-path" data-old_color="#000000" fill="#FFF"/><path d="M398.396 164.12c-1.704-2.464-1.704-5.784-.008-8.24a39.888 39.888 0 006.08-31.488c-2.472-10.84-9.448-20.216-19.128-25.728-2.608-1.48-4.048-4.472-3.576-7.424 1.728-11.008-1.256-22.304-8.184-31a39.923 39.923 0 00-28.408-14.88c-2.936-.2-5.592-2.32-6.448-5.136-3.208-10.672-10.808-19.56-20.824-24.376-10.016-4.824-21.696-5.208-32.048-1.088-2.736 1.104-6.048.344-8.032-1.832C270.292 4.712 259.596 0 248.484 0c-11.112 0-21.808 4.712-29.344 12.936-2 2.168-5.288 2.92-8.032 1.832-10.352-4.136-22.032-3.744-32.048 1.088-10.016 4.824-17.608 13.704-20.824 24.376-.848 2.824-3.504 4.936-6.448 5.144-11.12.76-21.472 6.184-28.408 14.88-6.928 8.696-9.912 19.992-8.184 31a7.272 7.272 0 01-3.568 7.424 39.895 39.895 0 00-19.136 25.728c-2.48 10.84-.264 22.32 6.072 31.48 1.704 2.472 1.704 5.784.008 8.24a39.888 39.888 0 00-6.08 31.488c2.472 10.84 9.448 20.216 19.136 25.728 2.56 1.456 4.032 4.512 3.568 7.424-1.728 11.008 1.256 22.304 8.184 31 6.928 8.688 17.28 14.112 28.408 14.88 2.936.192 5.584 2.312 6.448 5.144 3.208 10.664 10.808 19.552 20.824 24.368 10.008 4.84 21.704 5.224 32.048 1.088 2.728-1.096 6.04-.344 8.032 1.832 7.528 8.208 18.224 12.92 29.344 12.92 11.12 0 21.816-4.712 29.344-12.928 2-2.176 5.304-2.928 8.032-1.832 10.36 4.136 22.04 3.736 32.048-1.08 10.016-4.824 17.608-13.712 20.824-24.376.856-2.832 3.504-4.944 6.456-5.144 11.12-.776 21.472-6.192 28.4-14.88 6.928-8.696 9.912-19.992 8.184-31-.464-2.912 1.008-5.968 3.568-7.424a39.895 39.895 0 0019.136-25.728c2.48-10.84.264-22.32-6.08-31.488zm-13.168 9.088c3.848 5.576 5.152 12.256 3.648 18.832-1.504 6.576-5.568 12.04-11.448 15.384-8.352 4.744-12.96 14.32-11.48 23.816 1.056 6.68-.688 13.272-4.888 18.536-4.192 5.272-10.232 8.432-16.984 8.888-9.584.656-17.888 7.28-20.664 16.488-1.952 6.488-6.376 11.656-12.448 14.576-6.072 2.928-12.872 3.16-19.168.64-8.936-3.576-19.28-1.184-25.768 5.88-9.144 9.984-25.952 9.984-35.096 0-4.472-4.88-10.792-7.52-17.2-7.52-2.88 0-5.792.536-8.56 1.64-6.288 2.512-13.088 2.288-19.168-.64-6.072-2.92-10.496-8.096-12.448-14.576-2.776-9.2-11.08-15.832-20.656-16.488-6.76-.464-12.8-3.624-16.992-8.888-4.2-5.272-5.944-11.856-4.888-18.536 1.488-9.504-3.128-19.072-11.48-23.816-5.872-3.344-9.944-8.808-11.448-15.384-1.504-6.576-.2-13.256 3.648-18.832 5.456-7.904 5.456-18.52-.008-26.432-3.84-5.568-5.144-12.248-3.64-18.824 1.504-6.576 5.568-12.04 11.456-15.384 8.344-4.752 12.952-14.328 11.472-23.816-1.056-6.68.688-13.272 4.888-18.536 4.2-5.272 10.232-8.432 16.984-8.896 9.584-.656 17.888-7.28 20.664-16.48 1.952-6.48 6.376-11.664 12.448-14.584 6.08-2.928 12.888-3.16 19.168-.64 8.928 3.576 19.288 1.208 25.768-5.88 9.16-9.984 25.936-9.984 35.096 0 6.48 7.088 16.832 9.448 25.768 5.88 6.28-2.504 13.096-2.28 19.168.64 6.072 2.92 10.496 8.104 12.448 14.584 2.776 9.2 11.08 15.824 20.664 16.48 6.752.464 12.784 3.624 16.984 8.896 4.2 5.272 5.944 11.856 4.888 18.536-1.488 9.496 3.128 19.064 11.48 23.816 5.872 3.344 9.944 8.808 11.448 15.384 1.504 6.576.2 13.256-3.648 18.832-5.464 7.904-5.464 18.528-.008 26.424z" data-original="#000000" class="active-path" data-old_color="#000000" fill="#FFF"/><path data-original="#000000" class="active-path" data-old_color="#000000" fill="#FFF" d="M224.484 120h16v96h16V104h-32zM347.804 289.928L366.9 436.376l-28.488-9.504-14.728-107.952-15.856 2.16 14.432 105.824-36.12 36.128-18.48-129.368-15.84 2.264 23.008 161.04 55.824-55.808 55.416 18.464-22.408-171.76zM210.828 463.032l-36.12-36.128L189.14 321.08l-15.856-2.16-14.728 107.952-28.488 9.504 19.096-146.448-15.856-2.064-22.408 171.76 55.416-18.464 55.824 55.808 23.008-161.032-15.84-2.264z"/></svg>