<svg height="512" width="512" xmlns="http://www.w3.org/2000/svg"><path d="M204.381 396.158a15.001 15.001 0 01-13.953-9.493l-18.404-46.629-46.458-18.055a15.001 15.001 0 01-8.327-19.954l19.958-45.985-20.084-45.617a15 15 0 018.221-19.997l46.629-18.404 18.055-46.458a14.997 14.997 0 0119.954-8.327l45.985 19.958 45.617-20.084a15.001 15.001 0 0119.997 8.221l18.404 46.629 46.458 18.055a15.001 15.001 0 018.327 19.954l-19.958 45.985 20.084 45.617a15 15 0 01-8.221 19.997l-46.629 18.404-18.055 46.458a15.005 15.005 0 01-8.205 8.41 15.005 15.005 0 01-11.749-.083l-45.985-19.958-45.617 20.084a14.997 14.997 0 01-6.044 1.272zm-53.413-96.491l38.036 14.781a15.004 15.004 0 018.519 8.475l15.086 38.223 37.347-16.443a15.005 15.005 0 0112.017-.032l37.695 16.36 14.781-38.035a15.004 15.004 0 018.475-8.519l38.223-15.086-16.443-37.347a15.001 15.001 0 01-.032-12.017l16.361-37.695-38.036-14.781a15.004 15.004 0 01-8.519-8.475l-15.086-38.223-37.347 16.443a14.997 14.997 0 01-12.017.032l-37.695-16.36-14.781 38.035a15.004 15.004 0 01-8.475 8.519l-38.223 15.086 16.443 37.347a15.001 15.001 0 01.032 12.017z" fill="#4793ff"/><path d="M394.886 301.574l-20.084-45.617 19.958-45.985a15.001 15.001 0 00-8.327-19.954l-46.458-18.055-18.404-46.629a15.001 15.001 0 00-19.997-8.221L256 137.179v31.388c2.06 0 4.119-.422 6.045-1.27l37.347-16.443 15.086 38.223a15.004 15.004 0 008.519 8.475l38.036 14.781-16.361 37.695a14.997 14.997 0 00.032 12.017l16.443 37.347-38.223 15.086a15.004 15.004 0 00-8.475 8.519l-14.781 38.035-37.695-16.36a14.992 14.992 0 00-5.972-1.238v31.387l.043-.019 45.985 19.958a15.001 15.001 0 0019.954-8.327l18.055-46.458 46.629-18.404a15.001 15.001 0 008.219-19.997z" fill="#525cdd"/><path d="M311.638 30.569c-4.142-7.175-13.314-9.633-20.49-5.49L256 45.371l-35.148-20.292c-7.176-4.144-16.349-1.684-20.49 5.49-4.142 7.174-1.684 16.348 5.49 20.49l41.443 23.927a14.928 14.928 0 007.486 2.012 15 15 0 001.219-.056 15 15 0 001.219.056 14.93 14.93 0 007.486-2.012l41.443-23.927c7.174-4.142 9.632-13.316 5.49-20.49zM306.147 460.941l-41.443-23.927a14.92 14.92 0 00-8.708-1.956 14.924 14.924 0 00-8.702 1.956l-41.443 23.927c-7.174 4.142-9.632 13.316-5.49 20.49 2.778 4.813 7.82 7.502 13.004 7.502a14.93 14.93 0 007.486-2.012L256 466.629l35.148 20.293a14.928 14.928 0 007.486 2.012c5.184 0 10.226-2.69 13.004-7.502 4.142-7.175 1.684-16.349-5.491-20.491z" fill="#7dd5f4"/><path d="M466.629 256l20.292-35.148c4.142-7.174 1.684-16.348-5.49-20.49-7.175-4.144-16.349-1.685-20.49 5.49l-23.927 41.443a14.926 14.926 0 00-1.956 8.705 14.92 14.92 0 001.956 8.705l23.927 41.443c2.778 4.813 7.82 7.502 13.004 7.502a14.93 14.93 0 007.486-2.012c7.174-4.142 9.632-13.316 5.49-20.49z" fill="#4793ff"/><path d="M74.986 247.295l-23.927-41.443c-4.142-7.174-13.316-9.633-20.49-5.49-7.174 4.142-9.632 13.316-5.49 20.49L45.371 256l-20.293 35.148c-4.142 7.174-1.684 16.348 5.49 20.49a14.928 14.928 0 007.486 2.012c5.184 0 10.226-2.69 13.004-7.502l23.927-41.443A14.926 14.926 0 0076.941 256a14.917 14.917 0 00-1.955-8.705z" fill="#7dd5f4"/><path d="M454.746 376.062c-2.145-8.001-10.368-12.754-18.371-10.606l-46.223 12.386a14.924 14.924 0 00-7.536 4.77 14.924 14.924 0 00-4.774 7.54l-12.386 46.224c-2.144 8.002 2.604 16.227 10.606 18.371 1.301.349 2.606.515 3.892.515 6.623 0 12.684-4.42 14.479-11.122l10.504-39.203 39.202-10.504c8.002-2.144 12.751-10.37 10.607-18.371z" fill="#4793ff"/><path d="M135.937 57.253c-8.004-2.145-16.227 2.605-18.371 10.606l-10.504 39.203-39.202 10.504c-8.002 2.144-12.75 10.369-10.606 18.371 1.795 6.702 7.856 11.122 14.479 11.122 1.285 0 2.591-.167 3.892-.515l46.224-12.385a14.926 14.926 0 007.549-4.786 14.919 14.919 0 004.761-7.525l12.386-46.224c2.143-8.001-2.606-16.227-10.608-18.371z" fill="#7dd5f4"/><path d="M444.139 117.566l-39.202-10.504-10.504-39.202c-2.145-8.002-10.368-12.752-18.371-10.606-8.002 2.144-12.75 10.369-10.606 18.371l12.386 46.223a14.93 14.93 0 004.762 7.526 14.917 14.917 0 007.548 4.785l46.224 12.386c1.301.349 2.606.515 3.892.515 6.623 0 12.684-4.42 14.479-11.122 2.143-8.002-2.606-16.228-10.608-18.372z" fill="#4793ff"/><path d="M146.544 436.375l-12.386-46.224a14.924 14.924 0 00-4.774-7.54 14.917 14.917 0 00-7.536-4.77l-46.224-12.386c-8.006-2.146-16.228 2.604-18.371 10.606-2.144 8.002 2.604 16.227 10.606 18.371l39.202 10.504 10.504 39.202c1.796 6.702 7.856 11.122 14.479 11.122 1.285 0 2.591-.167 3.892-.515 8.003-2.143 12.752-10.369 10.608-18.37z" fill="#7dd5f4"/><path d="M497 241H292.213L437.019 96.194c5.858-5.858 5.858-15.355 0-21.213-5.857-5.858-15.355-5.858-21.213 0L271 219.787V15c0-8.284-6.716-15-15-15s-15 6.716-15 15v204.787L96.194 74.981c-5.857-5.858-15.355-5.858-21.213 0s-5.858 15.355 0 21.213L219.787 241H15c-8.284 0-15 6.716-15 15s6.716 15 15 15h204.787L74.981 415.806c-5.858 5.858-5.858 15.355 0 21.213 2.929 2.929 6.768 4.394 10.606 4.394s7.678-1.464 10.606-4.394L241 292.213V497c0 8.284 6.716 15 15 15s15-6.716 15-15V292.213l144.806 144.806c2.929 2.929 6.768 4.394 10.606 4.394s7.678-1.464 10.606-4.394c5.858-5.858 5.858-15.355 0-21.213L292.213 271H497c8.284 0 15-6.716 15-15s-6.716-15-15-15z" fill="#7dd5f4"/><g fill="#4793ff"><path d="M497 241H292.213L437.019 96.194c5.858-5.858 5.858-15.355 0-21.213-5.857-5.858-15.355-5.858-21.213 0L271 219.787V15c0-8.284-6.716-15-15-15v512c8.284 0 15-6.716 15-15V292.213l144.806 144.806c2.929 2.929 6.768 4.394 10.606 4.394s7.678-1.464 10.606-4.394c5.858-5.858 5.858-15.355 0-21.213L292.213 271H497c8.284 0 15-6.716 15-15s-6.716-15-15-15z"/><path d="M311.638 30.569c-4.142-7.175-13.314-9.633-20.49-5.49L256 45.371v31.572a15 15 0 001.219.056 14.93 14.93 0 007.486-2.012l41.443-23.927c7.174-4.143 9.632-13.317 5.49-20.491zM306.147 460.941l-41.443-23.927a14.92 14.92 0 00-8.705-1.956v31.571l35.148 20.293a14.928 14.928 0 007.486 2.012c5.184 0 10.226-2.69 13.004-7.502 4.143-7.175 1.685-16.349-5.49-20.491z"/></g></svg>