<svg xmlns="http://www.w3.org/2000/svg" width="512" height="512"><path d="M256.276 41.873a7.514 7.514 0 00-7.515 7.515v1.106a7.516 7.516 0 0015.03.001v-1.107a7.515 7.515 0 00-7.515-7.515zM256.276 7.627a7.514 7.514 0 00-7.515 7.515v1.108a7.515 7.515 0 1015.03 0v-1.108a7.515 7.515 0 00-7.515-7.515zM403.418 47.351a7.512 7.512 0 00-10.263 2.756l-.553.959a7.513 7.513 0 002.756 10.263 7.514 7.514 0 0010.263-2.756l.553-.959a7.513 7.513 0 00-2.756-10.263zM481.335 172.451a7.517 7.517 0 00-10.265-2.752l-.958.553a7.516 7.516 0 007.513 13.017l.958-.553a7.516 7.516 0 002.752-10.265zM510.991 155.326a7.515 7.515 0 00-10.265-2.749l-.959.555a7.513 7.513 0 00-2.748 10.265 7.51 7.51 0 0010.265 2.749l.959-.555a7.513 7.513 0 002.748-10.265zM71.546 186.418l-.959-.555c-3.593-2.071-8.19-.846-10.265 2.749a7.513 7.513 0 002.748 10.265l.959.555a7.514 7.514 0 0010.265-2.749 7.511 7.511 0 00-2.748-10.265zM41.892 169.296l-.958-.554a7.516 7.516 0 00-7.523 13.011l.958.554a7.516 7.516 0 007.523-13.011zM12.228 152.169l-.959-.553a7.512 7.512 0 00-10.263 2.756 7.514 7.514 0 002.756 10.263l.959.553a7.514 7.514 0 0010.263-2.756 7.514 7.514 0 00-2.756-10.263zM119.801 50.507l-.555-.959a7.513 7.513 0 00-10.265-2.748 7.514 7.514 0 00-2.749 10.265l.555.959a7.51 7.51 0 0010.265 2.748 7.514 7.514 0 002.749-10.265zM420.654 489.346H295.959v-42.257a7.515 7.515 0 10-15.03 0v42.257h-50.412v-64.932h87.944a7.515 7.515 0 007.515-7.515v-35.674a7.515 7.515 0 00-7.515-7.515H281.69v-30.487h36.771a7.515 7.515 0 007.515-7.515v-18.934h57.683a7.514 7.514 0 007.515-7.515 7.514 7.514 0 00-7.515-7.515h-57.792c-1.994-36.965-32.69-66.427-70.144-66.427-10.791 0-21.145 2.384-30.779 7.085a7.516 7.516 0 006.593 13.507c7.562-3.691 15.699-5.563 24.186-5.563 30.45 0 55.223 24.773 55.223 55.223v22.624H200.5v-18.896l.002-.039-.002-.039v-3.651c0-11.74 3.633-22.948 10.508-32.413a7.514 7.514 0 00-1.664-10.496 7.513 7.513 0 00-10.496 1.664c-8.001 11.015-12.54 23.883-13.263 37.42H127.79a7.515 7.515 0 100 15.03h57.68v18.934a7.514 7.514 0 007.515 7.515h36.771v30.487h-36.771a7.514 7.514 0 00-7.515 7.515v35.674a7.514 7.514 0 007.515 7.515h22.502v64.932H90.792a7.514 7.514 0 00-7.515 7.515 7.514 7.514 0 007.515 7.515H420.654a7.514 7.514 0 100-15.029zM244.786 343.224h21.875v30.487h-21.875v-30.487zM200.5 409.385v-20.644H310.946v20.644H200.5zM256.276 178.853a7.515 7.515 0 00-7.515 7.515v1.107a7.516 7.516 0 0015.03 0v-1.107a7.516 7.516 0 00-7.515-7.515zM256.276 144.608a7.514 7.514 0 00-7.515 7.515v1.107a7.516 7.516 0 0015.03 0v-1.107a7.515 7.515 0 00-7.515-7.515zM256.276 110.364a7.514 7.514 0 00-7.515 7.515v1.106a7.515 7.515 0 1015.03 0v-1.106a7.514 7.514 0 00-7.515-7.515zM256.276 76.118a7.514 7.514 0 00-7.515 7.515v1.107a7.515 7.515 0 1015.03 0v-1.107a7.514 7.514 0 00-7.515-7.515zM317.811 195.638a7.514 7.514 0 00-10.265 2.748l-.555.959a7.513 7.513 0 002.749 10.265 7.514 7.514 0 0010.265-2.748l.555-.959a7.513 7.513 0 00-2.749-10.265zM334.929 165.979a7.513 7.513 0 00-10.263 2.756l-.553.959a7.513 7.513 0 006.502 11.269 7.514 7.514 0 006.517-3.762l.553-.959a7.513 7.513 0 00-2.756-10.263zM352.057 136.324a7.513 7.513 0 00-10.265 2.748l-.555.959a7.513 7.513 0 002.749 10.265 7.514 7.514 0 0010.265-2.748l.555-.959a7.513 7.513 0 00-2.749-10.265zM369.178 106.667a7.512 7.512 0 00-10.265 2.748l-.555.959a7.514 7.514 0 0013.014 7.517l.555-.959a7.513 7.513 0 00-2.749-10.265zM386.301 77.011a7.514 7.514 0 00-10.265 2.748l-.555.959a7.514 7.514 0 0013.014 7.517l.555-.959a7.514 7.514 0 00-2.749-10.265zM362.709 240.944a7.514 7.514 0 00-10.263-2.756l-.959.553a7.514 7.514 0 003.761 14.025 7.473 7.473 0 003.746-1.006l.959-.553a7.514 7.514 0 002.756-10.263zM392.364 223.816a7.515 7.515 0 00-10.265-2.749l-.959.555a7.513 7.513 0 00-2.748 10.265 7.51 7.51 0 0010.265 2.749l.959-.555a7.514 7.514 0 002.748-10.265zM422.019 206.693a7.515 7.515 0 00-10.265-2.749l-.959.555a7.513 7.513 0 00-2.748 10.265 7.51 7.51 0 0010.265 2.749l.959-.555a7.513 7.513 0 002.748-10.265zM451.677 189.571a7.516 7.516 0 00-10.265-2.749l-.959.555a7.513 7.513 0 00-2.748 10.265 7.51 7.51 0 0010.265 2.749l.959-.555a7.513 7.513 0 002.748-10.265zM160.513 237.782l-.959-.553a7.51 7.51 0 00-10.263 2.756 7.514 7.514 0 002.756 10.263l.959.553a7.514 7.514 0 0010.263-2.756 7.514 7.514 0 00-2.756-10.263zM130.861 220.663l-.959-.555c-3.593-2.072-8.19-.845-10.265 2.749a7.512 7.512 0 002.748 10.265l.959.555a7.514 7.514 0 0010.265-2.749 7.513 7.513 0 00-2.748-10.265zM101.204 203.54l-.959-.555c-3.593-2.072-8.19-.846-10.265 2.749a7.512 7.512 0 002.748 10.265l.959.555a7.514 7.514 0 0010.265-2.749 7.512 7.512 0 00-2.748-10.265zM205.413 198.792l-.555-.959a7.513 7.513 0 00-10.265-2.748 7.514 7.514 0 00-2.749 10.265l.555.959a7.51 7.51 0 0010.265 2.748 7.514 7.514 0 002.749-10.265zM188.293 169.14l-.553-.959c-2.071-3.596-6.666-4.828-10.263-2.756a7.513 7.513 0 00-2.756 10.263l.553.959a7.51 7.51 0 0010.263 2.756 7.514 7.514 0 002.756-10.263zM171.168 139.477l-.555-.959a7.512 7.512 0 00-10.265-2.748 7.514 7.514 0 00-2.749 10.265l.555.959a7.51 7.51 0 0010.265 2.748 7.512 7.512 0 002.749-10.265zM154.046 109.822l-.555-.959a7.513 7.513 0 00-10.265-2.748 7.514 7.514 0 00-2.749 10.265l.555.959a7.51 7.51 0 0010.265 2.748 7.514 7.514 0 002.749-10.265zM136.924 80.164l-.555-.959a7.512 7.512 0 00-10.265-2.748 7.514 7.514 0 00-2.749 10.265l.555.959a7.51 7.51 0 0010.265 2.748 7.515 7.515 0 002.749-10.265z" data-original="#000000" class="active-path" data-old_color="#000000" fill="#008435"/></svg>