<svg height="512" viewBox="0 0 128 128" width="512" xmlns="http://www.w3.org/2000/svg"><path d="M89.755 62.159a9.893 9.893 0 00-.922-17.7 9.886 9.886 0 00-5.671-14.38 9.877 9.877 0 00-9.311-13.231h-.081a9.9 9.9 0 10-19.54 0h-.08a9.877 9.877 0 00-9.312 13.231 9.886 9.886 0 00-5.671 14.38 9.893 9.893 0 00-.922 17.7 9.9 9.9 0 006.966 16.928c.269 0 .533-.02.8-.041A9.889 9.889 0 0064 86.553a9.887 9.887 0 0017.993-7.507c.263.021.527.041.8.041a9.9 9.9 0 006.966-16.928z" fill="#54b88b"/><path d="M64 86.553a9.931 9.931 0 01-4.814 3.933v30.333h9.628V90.486A9.94 9.94 0 0164 86.553z" fill="#9b6e42"/><path d="M121.694 59.913a8.032 8.032 0 00-4.841-7.37 8.024 8.024 0 00-4.6-11.671 8.013 8.013 0 00-7.556-10.737h-.065a8.029 8.029 0 10-15.963-1.233 7.961 7.961 0 00.105 1.233h-.066a8 8 0 00-3.532.816 9.877 9.877 0 013.66 13.5 9.893 9.893 0 01.922 17.7 9.9 9.9 0 01-6.966 16.928c-.183 0-.362-.015-.542-.028l-.066 1.077a9.551 9.551 0 01.067 1.115 9.9 9.9 0 01-.273 2.273v.034A8.028 8.028 0 0096.7 86.706a8.023 8.023 0 0014.6-6.092c.213.017.428.033.646.033a8.032 8.032 0 005.654-13.738 8.028 8.028 0 004.094-6.996z" fill="#4c9b6e"/><path d="M96.7 86.706a8.071 8.071 0 01-3.907 3.194v30.921h7.813V89.9a8.064 8.064 0 01-3.906-3.194z" fill="#825a3a"/><path d="M45.753 81.251a9.551 9.551 0 01.066-1.115l-.065-1.077c-.18.013-.36.028-.543.028a9.9 9.9 0 01-6.966-16.928 9.893 9.893 0 01.922-17.7 9.877 9.877 0 013.66-13.5 8 8 0 00-3.532-.816h-.065a8.029 8.029 0 10-15.963-1.233 7.961 7.961 0 00.105 1.233h-.066a8.013 8.013 0 00-7.556 10.729 8.024 8.024 0 00-4.6 11.671 8.029 8.029 0 00-.75 14.366 8.031 8.031 0 005.653 13.738c.219 0 .433-.016.647-.033a8.026 8.026 0 0014.6 6.092 8.028 8.028 0 0014.726-3.148v-.034a9.9 9.9 0 01-.273-2.273z" fill="#4c9b6e"/><path d="M31.3 86.706a8.071 8.071 0 01-3.906 3.194v30.921h7.813V89.9a8.064 8.064 0 01-3.907-3.194z" fill="#825a3a"/><path d="M121.693 122.568h-7.261a1.75 1.75 0 010-3.5h7.261a1.75 1.75 0 010 3.5zM106.754 122.568H6.307a1.75 1.75 0 010-3.5h100.447a1.75 1.75 0 010 3.5z" fill="#65727f"/><g fill="#4c9b6e"><path d="M73.716 34.562a1.73 1.73 0 01-.537-.085 1.75 1.75 0 01-1.129-2.2 1.965 1.965 0 00-.673-2.36 1.75 1.75 0 112.391-2.556 5.406 5.406 0 011.614 5.989 1.752 1.752 0 01-1.666 1.212zM73.947 78.058a1.749 1.749 0 01-1.28-2.943c.854-.916 1.032-1.107 1.024-2.861a1.75 1.75 0 011.743-1.754h.007a1.75 1.75 0 011.75 1.742c.012 2.667-.5 3.7-1.963 5.264a1.75 1.75 0 01-1.281.552zM77.935 53.252a1.75 1.75 0 01-1.2-3.024 6.976 6.976 0 001.9-5.385c-.249-2.453-2.718-4.188-2.743-4.205a1.75 1.75 0 111.963-2.9c.156.106 3.845 2.648 4.262 6.75a10.557 10.557 0 01-2.976 8.286 1.747 1.747 0 01-1.206.478z"/></g></svg>