<svg xmlns="http://www.w3.org/2000/svg" height="512" viewBox="0 0 510.967 510.967" width="512"><path d="M414.47 274.61l-41.024 41.025a26.778 26.778 0 00-1.711-1.887l-52.982-52.982a7.5 7.5 0 00-10.607 10.606l52.982 52.982c4.555 4.554 4.555 11.965.001 16.519-4.557 4.554-11.967 4.555-16.52 0l-29.441-29.441a7.5 7.5 0 00-10.607 10.606l29.441 29.441.004.004a11.604 11.604 0 013.418 8.256c0 3.12-1.215 6.053-3.422 8.26-2.206 2.206-5.139 3.421-8.259 3.421s-6.053-1.215-8.259-3.421l-29.441-29.441a7.5 7.5 0 00-10.607 10.606l29.441 29.441c4.555 4.554 4.555 11.965.001 16.519-2.207 2.207-5.141 3.422-8.261 3.422s-6.053-1.215-8.259-3.421l-29.441-29.441a7.5 7.5 0 00-10.607 10.606l29.441 29.441c4.555 4.554 4.555 11.965 0 16.519-2.206 2.206-5.139 3.421-8.259 3.421s-6.053-1.215-8.259-3.421l-19.073-19.073c6.077-10.127 4.759-23.486-3.962-32.206l-.452-.452c-5.81-5.81-13.681-8.333-21.283-7.574-.427-6.362-3.102-12.286-7.654-16.838a26.195 26.195 0 00-12.315-6.943 26.339 26.339 0 001.76-9.487c0-7.042-2.742-13.662-7.721-18.641s-11.599-7.721-18.641-7.721c-4.013 0-7.887.893-11.4 2.581a26.19 26.19 0 00-6.712-11.456c-10.277-10.278-27.002-10.277-37.281 0l-3.093 3.093-2.255-2.255a19.074 19.074 0 01-5.624-13.577v-19.56a7.5 7.5 0 00-2.196-5.303L73.313 224.82l9.003-9.004a7.498 7.498 0 00-.001-10.606 7.498 7.498 0 00-10.606 0l-12.06 12.061a5.84 5.84 0 01-8.25 0l-38.595-38.596a7.5 7.5 0 00-10.607 10.606l38.596 38.596c4.062 4.061 9.396 6.091 14.73 6.091a20.97 20.97 0 005.077-.648l31.927 31.926V281.7c0 9.135 3.558 17.723 10.017 24.183l2.256 2.256-2.51 2.51c-4.979 4.979-7.722 11.599-7.722 18.641s2.742 13.662 7.721 18.64c5.14 5.139 11.891 7.709 18.642 7.709.107 0 .214-.006.321-.008-.001.111-.008.221-.008.333 0 7.042 2.742 13.662 7.721 18.64 4.979 4.979 11.6 7.721 18.641 7.721.111 0 .222-.007.333-.008-.083 6.857 2.48 13.741 7.7 18.961 5.14 5.139 11.891 7.709 18.642 7.709.111 0 .222-.007.332-.008-.086 6.861 2.477 13.75 7.701 18.974l.452.452c4.979 4.979 11.599 7.721 18.64 7.721 7.042 0 13.662-2.742 18.641-7.721l14.065-14.064 18.516 18.516c5.039 5.04 11.739 7.815 18.866 7.815s13.827-2.775 18.866-7.815c5.317-5.317 7.909-12.338 7.791-19.322.156.003.311.011.468.011 7.127 0 13.827-2.775 18.867-7.815 5.32-5.32 7.912-12.347 7.791-19.334.156.003.312.011.468.011 6.831-.001 13.665-2.602 18.865-7.802 5.04-5.039 7.815-11.739 7.815-18.866 0-.157-.009-.312-.011-.468.152.003.304.011.456.011 6.832 0 13.665-2.601 18.867-7.802 5.656-5.656 8.229-13.24 7.735-20.655l45.608-45.608a7.5 7.5 0 000-10.606 7.502 7.502 0 00-10.61-.002zm-301.575 62.713a11.286 11.286 0 01-3.327-8.033c0-3.035 1.182-5.888 3.328-8.034l16.209-16.209a11.33 11.33 0 018.035-3.323c2.909 0 5.818 1.107 8.033 3.322 4.43 4.431 4.43 11.639 0 16.068l-16.21 16.21c-4.43 4.43-11.637 4.429-16.068-.001zm34.709 30.003c-3.034 0-5.888-1.182-8.034-3.328s-3.327-4.999-3.327-8.033 1.182-5.888 3.328-8.034l16.21-16.21 10.078-10.078c2.146-2.146 4.998-3.328 8.033-3.328s5.888 1.182 8.033 3.328c2.146 2.146 3.328 5 3.328 8.034s-1.182 5.888-3.328 8.034l-26.288 26.288a11.288 11.288 0 01-8.033 3.327zm18.64 23.346c-4.43-4.43-4.43-11.638 0-16.068l17.891-17.892a11.328 11.328 0 018.034-3.321c2.909 0 5.819 1.108 8.033 3.322 2.146 2.146 3.328 5 3.328 8.034 0 3.033-1.18 5.884-3.324 8.029l-17.895 17.895c-4.429 4.431-11.637 4.431-16.067.001zm43.193 27.126a11.285 11.285 0 01-8.033 3.328 11.285 11.285 0 01-8.033-3.328l-.451-.451c-4.431-4.43-4.431-11.638 0-16.068l17.89-17.89.016-.017 2.245-2.246a11.33 11.33 0 018.035-3.322c2.909 0 5.819 1.108 8.033 3.322l.451.451c4.431 4.43 4.431 11.638 0 16.068z" data-original="#000000" class="active-path" data-old_color="#000000" fill="#db170d"/><path d="M508.771 210.276a7.5 7.5 0 00-10.607 0l-28.106 28.106a1.022 1.022 0 01-1.419.016l-99.362-94.913c-.205-.196-.311-.439-.314-.723s.098-.53.298-.73L428.194 83.1a7.5 7.5 0 00-10.607-10.606l-58.933 58.932a15.895 15.895 0 00-4.689 11.509 15.871 15.871 0 003.3 9.528l-26.97 26.449-25.411-14.172a22.398 22.398 0 00-10.889-2.832h-72.2l-5.495-5.494a50.562 50.562 0 00-17.863-11.569l-19.987-7.615-9.236-9.236c4.776-7.999 3.748-18.525-3.133-25.405l-30.095-30.095A7.5 7.5 0 00125.379 83.1l30.095 30.095a5.841 5.841 0 010 8.25l-61.163 61.163a7.5 7.5 0 005.304 12.803 7.478 7.478 0 005.304-2.197l54.151-54.151 9.907 9.907a7.512 7.512 0 002.634 1.706l21.486 8.186a35.645 35.645 0 0112.314 7.891 20.89 20.89 0 00-1.328 1.205l-28.524 28.526c-5.661 5.66-8.778 13.187-8.778 21.192s3.117 15.531 8.777 21.192c5.849 5.849 13.5 8.816 21.185 8.816 6.716 0 13.457-2.267 19.04-6.857l21.586-17.746h22.485l25.692 25.692c1.465 1.464 3.385 2.197 5.304 2.197s3.839-.732 5.304-2.197a7.5 7.5 0 000-10.606l-18.561-18.561a7.453 7.453 0 001.179-4.025 7.5 7.5 0 00-7.5-7.5h-36.591a7.498 7.498 0 00-4.763 1.707l-23.661 19.452a14.916 14.916 0 01-20.092-.978c-2.828-2.828-4.385-6.587-4.385-10.585s1.557-7.758 4.385-10.585l28.525-28.526a5.613 5.613 0 013.997-1.656h75.307c1.251 0 2.489.322 3.582.932l28.104 15.674c4.172 2.329 9.477 1.624 12.907-1.728l29.377-28.811 80.881 77.259-11.774 11.774a7.498 7.498 0 00.001 10.606c1.464 1.465 3.384 2.197 5.303 2.197s3.839-.732 5.304-2.197l12.113-12.113a16.02 16.02 0 009.544 3.14c4.116 0 8.23-1.555 11.328-4.654l28.107-28.105a7.503 7.503 0 000-10.608z" data-original="#000000" class="active-path" data-old_color="#000000" fill="#db170d"/></svg>