<svg xmlns="http://www.w3.org/2000/svg" viewBox="0 0 512.001 512.001" width="512" height="512"><path d="M451.156 325.648a7.502 7.502 0 0010.25-2.727c19.216-33.149 47.244-53.919 47.519-54.121a7.499 7.499 0 002.563-8.782 7.497 7.497 0 00-7.833-4.727c-2.456.279-53.917 6.423-96.387 33.928 9.069-16.12 18.788-29.877 27.709-41.029 26.768-33.46 52.387-51.575 52.638-51.751a7.5 7.5 0 00-5.485-13.554c-2.343.377-58.128 9.76-123.843 55.35a127.997 127.997 0 00-3.949 2.854c4.203-56.658 16.934-96.601 17.074-97.034a7.5 7.5 0 00-11.687-8.273c-1.504 1.148-34.125 26.437-66.962 80.376-12.234-51.466-28.617-97.455-29.702-100.479a7.5 7.5 0 00-14.12 0c-.19.531-17.158 48.067-29.659 100.519-32.786-53.901-65.415-79.201-67.007-80.417a7.5 7.5 0 00-11.686 8.271c.141.437 12.872 40.379 17.075 97.037a128.033 128.033 0 00-3.95-2.854C88 192.647 32.215 183.264 29.872 182.887a7.5 7.5 0 00-5.485 13.554c.252.177 25.568 18.021 52.323 51.359 9.025 11.246 18.861 25.134 28.026 41.423-42.47-27.507-93.933-33.651-96.389-33.93a7.514 7.514 0 00-7.833 4.727 7.499 7.499 0 002.563 8.782c.28.204 28.227 20.841 47.519 54.119a7.5 7.5 0 0012.977-7.523c-9.61-16.577-21.063-30.147-30.744-40.053 22.338 5.632 54.592 16.791 78.809 37.692 3.052 2.634 6.021 5.59 8.844 8.792 6.687 16.472 12.201 34.622 15.596 54.318l.105.609c.533 3.137.999 6.32 1.421 9.534H83.612a124.22 124.22 0 00-1.212-18.245 7.498 7.498 0 00-8.473-6.381 7.5 7.5 0 00-6.38 8.473 109.049 109.049 0 011.056 16.153h-58.15c-4.142 0-7.5 3.357-7.5 7.5s3.358 7.5 7.5 7.5h491.094c4.142 0 7.5-3.357 7.5-7.5s-3.358-7.5-7.5-7.5h-58.148c-.046-5.378.3-10.786 1.056-16.153a7.5 7.5 0 00-6.38-8.473 7.495 7.495 0 00-8.473 6.381 124.1 124.1 0 00-1.212 18.245H374.4c.42-3.203.884-6.375 1.415-9.501l.098-.571c3.395-19.729 8.918-37.905 15.613-54.395 2.821-3.201 5.788-6.155 8.838-8.787 24.164-20.855 56.431-32.022 78.787-37.669-9.676 9.903-21.12 23.467-30.723 40.031a7.5 7.5 0 002.728 10.25zM350.461 164.801c-4.649 20.537-10.295 52.203-11.973 90.151a166.982 166.982 0 00-3.679 3.827 175.705 175.705 0 00-3.163 3.477c-.204.23-.406.465-.61.697a184.35 184.35 0 00-3 3.505l-.415.497a197.055 197.055 0 00-2.885 3.576c-.272.344-.544.686-.815 1.034a212.307 212.307 0 00-2.785 3.657c-.305.409-.608.822-.911 1.235a226.005 226.005 0 00-2.744 3.811c-.242.344-.481.696-.721 1.042a234.157 234.157 0 00-2.367 3.474c-.241.361-.484.717-.725 1.081a257.993 257.993 0 00-2.702 4.186c-.257.407-.515.814-.771 1.225a268.218 268.218 0 00-2.704 4.418c-.192.321-.383.646-.574.969-.343.579-.689 1.154-1.03 1.739-.012-.273-.03-.555-.043-.829-.893-18.442-4.056-39.152-8.293-59.824 17.964-32.334 37.815-57.074 52.91-72.948zm-94.463-23.103c8.881 27.398 23.835 77.167 31.016 121.877a452.797 452.797 0 011.044 6.862c.063.441.127.882.188 1.322.169 1.203.332 2.398.486 3.576l.079.617a346.327 346.327 0 01.91 7.754l.034.336c.124 1.196.24 2.377.347 3.544l.031.328c.112 1.238.215 2.46.308 3.666l.024.324c.082 1.086.156 2.158.222 3.217l.033.517c.069 1.139.129 2.263.18 3.371l.016.383a201.697 201.697 0 01.126 3.607 181.7 181.7 0 01.057 3.083c.013 1.467.022 2.912.028 4.342-11.672 6.413-23.841 15.127-35.12 26.977-.488-.513-.979-1.018-1.47-1.52-.009-.646-.033-1.277-.046-1.919a317.813 317.813 0 00-.078-3.272 300.07 300.07 0 00-.127-3.47 298.741 298.741 0 00-.146-3.193c-.06-1.146-.13-2.282-.203-3.417a276.24 276.24 0 00-.213-3.11c-.085-1.13-.182-2.25-.281-3.368-.089-1.013-.178-2.026-.278-3.029a257.97 257.97 0 00-.358-3.31c-.111-.987-.222-1.975-.344-2.952-.137-1.093-.287-2.173-.436-3.253-.133-.96-.264-1.922-.408-2.872-.163-1.075-.34-2.136-.516-3.198-.155-.932-.306-1.868-.471-2.791-.189-1.056-.393-2.096-.595-3.138-.176-.906-.348-1.817-.534-2.713-.215-1.035-.447-2.054-.675-3.076-.197-.88-.388-1.765-.595-2.634-.243-1.019-.503-2.02-.759-3.025-.216-.848-.426-1.703-.653-2.541-.272-1.008-.563-1.997-.849-2.991-.234-.812-.46-1.631-.704-2.433-.304-1.002-.628-1.983-.947-2.97-.249-.77-.489-1.549-.747-2.309-.341-1.005-.703-1.988-1.059-2.977-.259-.719-.509-1.448-.776-2.159-.39-1.034-.802-2.045-1.209-3.061-.257-.64-.502-1.292-.766-1.925-.482-1.157-.988-2.288-1.493-3.42-.21-.47-.407-.951-.621-1.417a141.609 141.609 0 00-2.26-4.7v-.001l-.089-.173a432.966 432.966 0 00-2.597-5.054c-.8-1.534-1.602-3.055-2.407-4.554 7.746-36.124 18.64-71.993 25.701-93.758zm-40.21 98.477l.014.028a422.406 422.406 0 016.192 11.788v-.001a129.11 129.11 0 011.943 4.044c.2.434.391.879.588 1.317.425.95.845 1.907 1.252 2.878.218.518.43 1.042.642 1.567.376.928.745 1.866 1.105 2.812.203.533.406 1.067.604 1.607.37 1.008.728 2.03 1.081 3.058.164.479.333.953.494 1.437.483 1.457.952 2.93 1.399 4.425l.052.165c.464 1.557.906 3.138 1.332 4.737.131.49.253.99.38 1.484.288 1.121.571 2.248.841 3.389.141.597.277 1.2.413 1.802a191.258 191.258 0 011.734 8.584c.102.567.208 1.13.305 1.701.267 1.567.519 3.151.755 4.751.025.169.054.334.079.503.256 1.768.49 3.56.708 5.368.068.566.127 1.142.192 1.712.143 1.261.28 2.527.405 3.807.067.69.128 1.385.19 2.08a270.823 270.823 0 01.45 5.769c.026.394.045.795.069 1.19-9.859-7.501-19.866-13.103-29.219-17.283-.536-.976-1.077-1.94-1.619-2.901-.101-.179-.201-.363-.302-.542a283.677 283.677 0 00-2.777-4.782c-.269-.454-.539-.904-.809-1.354a261.718 261.718 0 00-2.447-3.998c-.194-.311-.387-.625-.582-.934a250.531 250.531 0 00-3.66-5.627 237.013 237.013 0 00-3.374-4.911 229.761 229.761 0 00-6.265-8.452c-.222-.284-.446-.56-.668-.841a200.274 200.274 0 00-3.505-4.314 186.745 186.745 0 00-3.095-3.616c-.15-.17-.301-.334-.451-.503a172.028 172.028 0 00-2.89-3.176c-.256-.275-.512-.551-.769-.823a168.054 168.054 0 00-3.06-3.168c-1.674-37.871-7.301-69.482-11.944-90.022 14.27 14.926 34.826 39.755 54.217 75.245zM152.74 386.286v.004c-.046-.37-.102-.733-.149-1.101a276.42 276.42 0 00-.549-4.058c-.079-.552-.158-1.105-.24-1.655-.242-1.62-.499-3.238-.77-4.854-.037-.219-.07-.44-.108-.658-3.408-19.998-9.059-39.705-16.885-58.8a7.292 7.292 0 00-.412-.813c-13.101-31.65-30.227-57.26-45.219-75.94a338.289 338.289 0 00-29.103-31.879c21.788 7.56 52.657 20.994 85.859 44.028 5.498 3.814 10.855 8.275 16.065 13.347a142.458 142.458 0 012.576 2.573 156.565 156.565 0 014.241 4.512c.235.26.469.524.703.787a163.66 163.66 0 011.83 2.081c.167.193.332.391.498.585.672.786 1.343 1.578 2.01 2.387l.084.104c3.826 4.649 7.56 9.666 11.194 15.03.137.203.276.402.413.606.563.837 1.121 1.687 1.679 2.541.23.352.461.702.69 1.057.17.263.338.533.507.797-13.103-3.592-22.219-4.207-23.254-4.266l-.021-.001h-.001a7.475 7.475 0 00-3.766.801 7.467 7.467 0 00-3.028 2.735 7.504 7.504 0 001.283 9.463l.132.125.107.103.218.21c.056.054.134.132.199.197l.311.308.266.269c.132.134.265.267.417.423l.339.35.501.521.403.426c.19.202.384.408.59.63.146.157.302.328.456.495.218.238.441.481.674.739l.508.566a144.693 144.693 0 012.109 2.417 155.253 155.253 0 014.679 5.77c.226.292.452.583.681.885.341.447.687.91 1.035 1.376.229.307.457.61.688.925.362.492.729 1.003 1.097 1.515.226.314.449.622.677.944.386.546.778 1.114 1.169 1.681.214.311.427.614.643.931.425.626.854 1.275 1.283 1.925.185.281.369.552.555.838.51.784 1.022 1.592 1.534 2.409.106.17.212.331.318.502a165.623 165.623 0 013.741 6.327c.118.21.234.43.352.642.493.886.984 1.78 1.471 2.696.189.355.374.724.562 1.084.412.79.824 1.581 1.23 2.392.215.43.426.873.639 1.309.372.761.745 1.523 1.11 2.302.226.482.447.977.671 1.466.344.753.687 1.506 1.023 2.275.23.525.454 1.062.68 1.594.319.753.637 1.509.948 2.277.227.561.448 1.13.67 1.698.298.762.593 1.526.881 2.302.22.591.434 1.189.648 1.788.276.773.548 1.55.814 2.335a147.221 147.221 0 011.937 6.187 146.522 146.522 0 011.202 4.434c.208.822.407 1.651.602 2.484.16.684.319 1.369.47 2.061.183.841.354 1.692.523 2.545.139.701.278 1.402.407 2.111.048.264.088.533.134.798H152.74zm63.655.005v-.001l-.004-.025c-.045-.286-.096-.566-.142-.851-.128-.785-.256-1.569-.395-2.345-.077-.432-.162-.857-.242-1.286-.117-.621-.232-1.244-.355-1.859-.094-.471-.196-.937-.294-1.405-.119-.566-.237-1.133-.362-1.694-.107-.483-.22-.961-.332-1.441-.125-.539-.25-1.078-.38-1.612-.118-.486-.242-.968-.364-1.45-.132-.519-.264-1.038-.4-1.553a162.18 162.18 0 00-.394-1.451 153.743 153.743 0 00-1.279-4.398 143.3 143.3 0 00-.904-2.85 141.671 141.671 0 00-.943-2.789c-.167-.479-.334-.957-.504-1.432-.158-.439-.318-.874-.478-1.31-.175-.475-.35-.951-.528-1.421-.161-.425-.325-.846-.489-1.267-.183-.471-.365-.943-.551-1.409-.163-.409-.33-.813-.495-1.218-.192-.47-.383-.942-.578-1.407-.159-.379-.321-.753-.482-1.129-.206-.482-.411-.967-.62-1.444-.137-.312-.276-.617-.414-.926a169.203 169.203 0 00-2.585-5.529c-.131-.268-.261-.54-.393-.805-.236-.476-.475-.943-.713-1.412-.159-.313-.317-.629-.477-.94-.231-.449-.465-.891-.698-1.334-.168-.32-.336-.641-.504-.957-.231-.433-.463-.858-.696-1.285-.173-.318-.346-.637-.52-.951-.23-.416-.46-.826-.691-1.235-.179-.317-.357-.635-.537-.949a249.654 249.654 0 00-1.233-2.124 193.197 193.197 0 00-1.916-3.172 178.36 178.36 0 00-1.231-1.963c-.19-.299-.381-.595-.571-.89-.221-.343-.442-.685-.662-1.022-.191-.292-.382-.58-.573-.868-.218-.329-.435-.658-.653-.981-.195-.29-.388-.574-.582-.859-.211-.31-.422-.622-.632-.926-.202-.293-.402-.578-.603-.866-.202-.289-.404-.581-.605-.865-.212-.3-.422-.592-.633-.887-.186-.259-.372-.523-.557-.777-.255-.352-.507-.695-.76-1.038-.139-.189-.279-.383-.417-.569-.378-.51-.752-1.009-1.124-1.499 16.69 4.671 40.806 14.742 61.297 36.217l.382.4c.522.552 1.041 1.117 1.558 1.684.237.261.477.52.712.782.415.463.826.936 1.237 1.409.31.357.623.712.928 1.071.37.435.736.88 1.103 1.323.316.382.636.763.945 1.145.644.798 1.285 1.605 1.918 2.43l.044.06a112.945 112.945 0 012.669 3.641c.272.385.537.778.806 1.168.633.921 1.258 1.855 1.872 2.805.272.42.544.839.812 1.265.703 1.115 1.392 2.25 2.069 3.402.135.231.276.454.41.686a133.62 133.62 0 012.344 4.234c.208.392.41.793.615 1.189a147.516 147.516 0 012.352 4.738 147.327 147.327 0 011.596 3.494c.17.385.345.763.513 1.151.054.125.104.256.158.382h-53.845zm93.423-44.877c-.151.311-.303.617-.453.931-.381.798-.759 1.606-1.132 2.422-.144.315-.285.637-.428.954-.234.519-.468 1.036-.699 1.562-.164.374-.324.754-.486 1.131-.206.479-.413.956-.615 1.441-.166.397-.329.801-.494 1.202-.194.473-.388.945-.579 1.423-.165.414-.326.833-.489 1.25-.185.475-.37.949-.551 1.428-.162.429-.321.861-.481 1.294a141.759 141.759 0 00-1.493 4.222 164.202 164.202 0 00-1.814 5.728 141.218 141.218 0 00-.842 2.948c-.128.466-.256.932-.381 1.402-.141.53-.276 1.064-.412 1.599-.119.469-.239.936-.354 1.408-.134.548-.261 1.101-.39 1.653-.108.467-.219.933-.323 1.403-.128.574-.248 1.155-.37 1.734-.096.455-.194.908-.286 1.367-.125.624-.242 1.254-.36 1.884-.079.423-.163.843-.239 1.268-.139.776-.267 1.559-.394 2.343-.046.285-.098.567-.143.853l-.004.025h-9.157c-.067-.174-.141-.342-.209-.515-.275-.703-.563-1.39-.845-2.085-.469-1.158-.94-2.314-1.429-3.449-.319-.741-.649-1.469-.976-2.2a161.706 161.706 0 00-1.454-3.173c-.349-.737-.704-1.465-1.062-2.191a154.841 154.841 0 00-2.648-5.147 149.194 149.194 0 00-1.625-2.928c-.384-.675-.766-1.352-1.158-2.016a142.176 142.176 0 00-1.777-2.916c-.38-.61-.754-1.227-1.141-1.828a137.437 137.437 0 00-2.068-3.093c-.33-.483-.652-.978-.987-1.455a129.27 129.27 0 00-3.196-4.358l-.053-.069.103-.112c.4-.428.803-.846 1.205-1.265.264-.276.527-.553.794-.826.5-.511 1.002-1.013 1.506-1.511l.462-.457c.6-.587 1.202-1.167 1.807-1.735l.063-.059c19.317-18.13 40.98-27 56.344-31.294-.375.495-.754 1-1.136 1.516l-.243.332c-.31.42-.621.844-.935 1.277l-.448.625c-.249.347-.498.693-.749 1.049-.169.239-.34.486-.51.729-.233.333-.466.665-.7 1.005-.18.261-.361.529-.542.794-.227.333-.454.666-.682 1.006-.186.277-.373.56-.56.842a199.194 199.194 0 00-1.241 1.896 214.319 214.319 0 00-1.243 1.954 166.07 166.07 0 00-1.907 3.111 125.86 125.86 0 00-1.237 2.098c-.195.336-.39.672-.585 1.013-.216.377-.43.758-.645 1.141-.196.348-.391.695-.586 1.048-.216.391-.431.787-.646 1.183-.19.35-.381.699-.57 1.053-.22.412-.439.831-.658 1.248-.184.35-.368.698-.55 1.052-.224.435-.446.877-.669 1.318-.175.346-.35.688-.524 1.037-.242.488-.481.985-.721 1.48zm68.554-27.063c-.148.264-.295.53-.41.811-7.826 19.094-13.476 38.8-16.884 58.797-.038.224-.073.45-.11.673-.27 1.611-.527 3.224-.768 4.838a214.98 214.98 0 00-.241 1.665c-.193 1.349-.376 2.7-.548 4.052-.047.369-.103.732-.149 1.103h-48.426c.046-.26.085-.525.132-.784.128-.703.267-1.397.405-2.093.169-.85.339-1.698.522-2.538.152-.695.312-1.383.473-2.07.193-.822.389-1.641.595-2.452.173-.683.353-1.36.535-2.035a136.97 136.97 0 011.977-6.668 138.684 138.684 0 011.422-4.178c.226-.634.453-1.266.686-1.891.272-.731.551-1.452.832-2.171.239-.612.477-1.224.722-1.827.289-.712.584-1.412.88-2.111.25-.59.498-1.182.752-1.762.304-.693.614-1.373.923-2.053.257-.564.512-1.133.773-1.689.319-.68.645-1.344.97-2.011.26-.534.518-1.075.782-1.601.337-.672.678-1.326 1.019-1.983.258-.498.514-1.004.774-1.493.363-.683.731-1.346 1.097-2.012.243-.441.483-.894.727-1.328.453-.806.908-1.587 1.364-2.368a163.322 163.322 0 012.311-3.852c.264-.425.526-.829.789-1.245.353-.559.707-1.123 1.059-1.666.288-.444.574-.869.861-1.302.325-.491.651-.988.974-1.465.294-.434.584-.849.875-1.271.312-.451.624-.907.933-1.344.295-.418.585-.819.876-1.224.299-.416.599-.835.893-1.237.291-.397.576-.779.863-1.163.287-.385.575-.772.858-1.144.284-.374.563-.735.841-1.095.275-.356.55-.711.819-1.054a214.201 214.201 0 011.591-1.992 170.578 170.578 0 012.91-3.478 113.917 113.917 0 011.302-1.487c.207-.233.412-.464.609-.682a126.242 126.242 0 011.12-1.229c.176-.191.342-.367.506-.543l.474-.504c.157-.166.301-.315.444-.464.132-.137.27-.282.39-.405a175.125 175.125 0 01.68-.692l.266-.265.237-.235c.084-.083.143-.14.205-.199l.118-.114.132-.125a7.5 7.5 0 00-5.5-12.998h-.01l-.01.001c-.964.055-10.105.662-23.271 4.276.151-.235.3-.476.451-.71.21-.326.422-.646.633-.97.578-.887 1.158-1.771 1.741-2.64.085-.127.171-.251.257-.377 3.664-5.429 7.432-10.502 11.293-15.203l.16-.197c.67-.813 1.343-1.609 2.019-2.4.163-.191.326-.385.49-.575.617-.716 1.238-1.419 1.86-2.117l.678-.76a157.24 157.24 0 012.557-2.764c.574-.606 1.15-1.205 1.728-1.796.276-.283.554-.562.831-.842a142.5 142.5 0 011.749-1.733c5.205-5.065 10.557-9.521 16.05-13.332 33.203-23.034 64.073-36.47 85.86-44.028a338.017 338.017 0 00-29.103 31.879c-14.997 18.681-32.124 44.292-45.225 75.941z" data-original="#000000" class="active-path" data-old_color="#000000" fill="#008435"/></svg>