<svg height="512" viewBox="0 0 128 128" width="512" xmlns="http://www.w3.org/2000/svg"><g><path d="m47.491 48.366h33.017v11.827h-33.017z" fill="#fd3"/><path d="m54.22 68.073h19.56v18.036h-19.56z" fill="#fd3"/><path d="m58.089 93.988h11.821v11.045h-11.821z" fill="#fd3"/><path d="m58.089 93.988-3.869-7.879h19.56l-3.869 7.879z" fill="#f9922d"/><path d="m54.22 68.073-6.729-7.879h33.018l-6.729 7.879z" fill="#f9922d"/><path d="m48.888 105.033h30.224a17.536 17.536 0 0 1 17.536 17.536 0 0 0 0 1 0 0h-65.295a0 0 0 0 1 0 0 17.536 17.536 0 0 1 17.535-17.536z" fill="#2eb74e"/><g fill="#9e5410"><path d="m108.619 56.03h-20.807a1.75 1.75 0 1 1 0-3.5h20.807a1.75 1.75 0 0 1 0 3.5z"/><path d="m121.693 56.03h-6.237a1.75 1.75 0 1 1 0-3.5h6.237a1.75 1.75 0 1 1 0 3.5z"/><path d="m40.188 56.03h-20.807a1.75 1.75 0 0 1 0-3.5h20.807a1.75 1.75 0 0 1 0 3.5z"/><path d="m12.544 56.03h-6.237a1.75 1.75 0 0 1 0-3.5h6.237a1.75 1.75 0 0 1 0 3.5z"/><path d="m50.833 42.863a1.741 1.741 0 0 1 -1.233-.513l-14.717-14.713a1.75 1.75 0 0 1 2.474-2.475l14.713 14.714a1.75 1.75 0 0 1 -1.237 2.987z"/><path d="m31.285 23.315a1.746 1.746 0 0 1 -1.237-.512l-4.41-4.411a1.749 1.749 0 0 1 2.474-2.474l4.41 4.41a1.75 1.75 0 0 1 -1.237 2.987z"/><path d="m77.167 42.863a1.75 1.75 0 0 1 -1.237-2.987l14.713-14.714a1.75 1.75 0 0 1 2.474 2.475l-14.717 14.713a1.743 1.743 0 0 1 -1.233.513z"/><path d="m96.715 23.315a1.75 1.75 0 0 1 -1.237-2.987l4.41-4.41a1.749 1.749 0 0 1 2.474 2.474l-4.41 4.408a1.746 1.746 0 0 1 -1.237.515z"/><path d="m64 42.813a1.749 1.749 0 0 1 -1.75-1.75v-20.807a1.75 1.75 0 0 1 3.5 0v20.807a1.749 1.749 0 0 1 -1.75 1.75z"/><path d="m64 15.169a1.749 1.749 0 0 1 -1.75-1.75v-6.237a1.75 1.75 0 0 1 3.5 0v6.237a1.749 1.749 0 0 1 -1.75 1.75z"/></g></g></svg>