<svg height="512" viewBox="0 0 128 128" width="512" xmlns="http://www.w3.org/2000/svg"><path d="M47.491 48.366h33.017v11.827H47.491zM54.22 68.073h19.56v18.036H54.22zM58.089 93.988H69.91v11.045H58.089z" fill="#fd3"/><path d="M58.089 93.988l-3.869-7.879h19.56l-3.869 7.879zM54.22 68.073l-6.729-7.879h33.018l-6.729 7.879z" fill="#f9922d"/><path d="M48.888 105.033h30.224a17.536 17.536 0 0117.536 17.536H31.353a17.536 17.536 0 0117.535-17.536z" fill="#2eb74e"/><g fill="#9e5410"><path d="M108.619 56.03H87.812a1.75 1.75 0 110-3.5h20.807a1.75 1.75 0 010 3.5zM121.693 56.03h-6.237a1.75 1.75 0 110-3.5h6.237a1.75 1.75 0 110 3.5zM40.188 56.03H19.381a1.75 1.75 0 010-3.5h20.807a1.75 1.75 0 010 3.5zM12.544 56.03H6.307a1.75 1.75 0 010-3.5h6.237a1.75 1.75 0 010 3.5zM50.833 42.863a1.741 1.741 0 01-1.233-.513L34.883 27.637a1.75 1.75 0 012.474-2.475L52.07 39.876a1.75 1.75 0 01-1.237 2.987zM31.285 23.315a1.746 1.746 0 01-1.237-.512l-4.41-4.411a1.749 1.749 0 012.474-2.474l4.41 4.41a1.75 1.75 0 01-1.237 2.987zM77.167 42.863a1.75 1.75 0 01-1.237-2.987l14.713-14.714a1.75 1.75 0 012.474 2.475L78.4 42.35a1.743 1.743 0 01-1.233.513zM96.715 23.315a1.75 1.75 0 01-1.237-2.987l4.41-4.41a1.749 1.749 0 012.474 2.474l-4.41 4.408a1.746 1.746 0 01-1.237.515zM64 42.813a1.749 1.749 0 01-1.75-1.75V20.256a1.75 1.75 0 013.5 0v20.807a1.749 1.749 0 01-1.75 1.75zM64 15.169a1.749 1.749 0 01-1.75-1.75V7.182a1.75 1.75 0 013.5 0v6.237a1.749 1.749 0 01-1.75 1.75z"/></g></svg>